<?xml version="1.0" encoding="utf-8"?>
<!-- Generator: Adobe Illustrator 24.0.3, SVG Export Plug-In . SVG Version: 6.00 Build 0)  -->
<svg version="1.1" id="Layer_1" xmlns="http://www.w3.org/2000/svg" xmlns:xlink="http://www.w3.org/1999/xlink" x="0px" y="0px"
	 viewBox="0 0 996.1 161.5" style="enable-background:new 0 0 996.1 161.5;" xml:space="preserve">
<style type="text/css">
	.st0{fill:#FFFFFF;}
	.st1{fill:none;}
</style>
<title>NW-logo</title>
<path class="st0" d="M582.4,159.5l-5.2,0.1l-1-0.1l-2,0.2l-0.6-0.2l-1.2,0.2l-0.2-0.2l1.1-0.1l-3.3,0.1l-0.1,0.1l-0.2-0.2h-1.1
	l0.6,0.2l-2.8,0.1v-0.2h-2.3l-0.2,0.1l0-0.1l-0.4,0.2l-0.1-0.2l-2,0.1l-0.4,0.3l-0.8-0.4l-0.7,0.3v-0.2l-6.5-0.1l0.1,0.2h-0.4
	l-0.1-0.1l-2.6,0.2l-0.2-0.1l-0.4,0.2l0.3-0.2l-0.3-0.1h-1l0.8,0.3l-1.7-0.3l-0.2,0.1l-0.2-0.1h-11.6l-0.1,0.2l-0.3-0.2h-93.5
	l-0.5,0.3l-2.1-0.1l0.8-0.1H328.7l-0.3,0.2l-1.5-0.1l0.6-0.1l-2.6,0.1l0-0.1l-39.3,0.1l0.1-0.1l-1.7,0.1v-0.1h-1v0.1l-0.4,0.1
	l-0.2-0.2h-22.4l-0.4,0.2l-0.2-0.1v-0.1h-1v0.1l-1.7-0.1l0.1,0.1l-11.7-0.1l-7,0.6l-0.9-0.6l-62.4,0.3l0.7-0.3l-1.6,0.2l-0.1-0.1
	l0.2-0.1l-22.5-0.3l-17.3,0.4l-2.6-0.1l0.6,0.1l-1.5,0.1l-0.3-0.2H99.1l0.8,0.1l-2.1,0.1l-0.5-0.3H56l-0.3,0.2l-0.1-0.2H44l-0.2,0.1
	l-0.2-0.1l-1.7,0.3l0.8-0.3h-1.2l-0.3,0.1l0.3,0.2l-0.4-0.2l-0.2,0.1l0-0.1l-2.6-0.2l-0.1,0.1h-0.4l0.1-0.2h-2.3l-4.2,0.1v0.2
	l-0.7-0.3l-0.8,0.4l-0.4-0.3l-2-0.1l-0.1,0.2l-0.4-0.2l0,0.1l-0.2-0.1h-2.2v0.2l-2.8-0.1l0.6-0.2h-1l-0.2,0.2v-0.1l-3.6-0.1l1.3,0.2
	l-0.2,0.2l-1.3-0.1l-0.6,0.2l-1.4-0.3l-1.5,0.2l-5.2-0.1L0,159.9l9,0.5h8l0.2-0.2l20.8,0.3l1.8-0.2l0.1,0.3l8.8,0.1l-0.4-0.2h13.3
	l-0.1,0.2h1.6l0.1-0.3l3.4,0.2l-0.2-0.3h0.7l-0.5-0.2l19.4,0.6l1.1-0.4l1.2,0.3l0.6-0.5l4,0.2v0.3l3.7-0.1l0.2-0.1l-0.3-0.1l7.8,0.3
	v-0.1l4.8,0.1l0,0l9.6-0.1l-0.2-0.1l44.1,0.5l9-0.3l-0.7-0.2l2.2,0.2l-0.7-0.4l0.6,0.1l35,0.3l0.6-0.2h2.1l-0.6,0.3h71.2l0.9-0.9
	l0.4,0.9h5.2v-0.1l26.8,0.1l0.2-1.2l2.8,0.4l1,0.6h22.3l-0.2,0.1l47.4,0.1l0,0l2.6-0.2l-0.1,0.1l4.3,0.7l9.8,0.2l38.4-1.1l-0.4,0.1
	l0.2,0.1l27.1,0.1l-0.1-0.3l32.7-0.2l0.6,0.5l1.2-0.3l20.5-0.2l-0.5,0.2h0.7l-0.2,0.3l3.4-0.2l0.1,0.3l1.5,0.3h4l7.7-0.2l2.6,0.2
	l0.7-0.3l0.1,0.1l6.8-0.1l0.1-0.3l1.9,0.1l20.7-0.3l0.2,0.2h8l9-0.5L582.4,159.5z M42.4,159.6L42.4,159.6z M547.9,159.6L547.9,159.6
	z"/>
<path class="st0" d="M219.9,74.9l0.7-0.1h-1.9l-1.1,0.2l-0.4-0.2h-24.1l0.5,0.3l-1.2-0.2l-0.4,0.3l-2.4-0.2l-2.8-0.1l-0.5,0.3v-0.3
	h-1l-0.1,0.2l-0.6-0.2l-1.3,0.2l0.7,0.5l-2.6-0.7l-0.2,0.1l-0.8-0.1l-0.3,0.3H180l0.2-0.3l-4.9,0.1l0.4,0.1l-1.6,0.5l0.9-0.6h-1.9
	V75l-0.6-0.3h-0.6l-0.4,0.4l-0.1-0.2h-1l0.9-0.1h-1.9l-0.2,0.2l-0.2-0.2L155.1,75l0.7-0.3l-1.6,0.2l0.1-0.2h-20.9l0.6,0.2l-1.5,0.1
	l-0.3-0.2h-31.6l0.8,0.2L99.3,75l-0.5-0.3h-42l-0.3,0.2l-0.1-0.2H44.6l-2.1,0.4l0.8-0.4h-1.2l0.1,0.3l-0.5-0.2L39,74.7l-0.6,0.2
	l0.1-0.2L32,74.8v0.2l-0.7-0.3l-0.8,0.4l-0.4-0.3l-2-0.1l-0.1,0.2l-0.8-0.2h-2.3V75l-2.8-0.1l0.6-0.2h-1.1l-0.2,0.3L21,74.8
	l-3.7-0.1l1.7,0.2l-0.2,0.2l-1.3-0.2l-0.6,0.2l-2.8-0.2H8.7L0,75.3l9.1,0.5h8.1l0.2-0.2l21.1,0.3l1.8-0.2l0.1,0.3l8.9,0.2l-0.4-0.2
	h13.5v0.2h1.6l0.1-0.3l3.4,0.2l-0.2-0.3l11,0.8l3.1-0.2l7.8,0.7l0.6-0.5l4.3-0.7v0.3l3.9-0.2l-0.4-0.1l8,0.3l2.3-0.2l2.6,0.2l0,0
	l9.7-0.1l-0.2-0.1h30.6l-0.3,0.2h1.4l-0.7-0.2l2.2,0.2l-0.8-0.4l2.5,0.4l0.6-0.2l2.9,0.4h3.4l8.4,0.3l11.3-0.7l-0.1,0.2l1.7-0.3
	l1,0.3l33.2-0.4l0.2,0.3h16l-0.3-1l1,1l14,0.5l2.1-1.8L219.9,74.9z M173.5,75.2L173.5,75.2l0.4-0.2L173.5,75.2L173.5,75.2z
	 M184.9,75.3h0.7H184.9z M232.6,75.8l-0.2,0l0.8-0.1L232.6,75.8L232.6,75.8z M247.4,75.8l0.3,0.2l-0.1,0.1L247.4,75.8z"/>
<path class="st0" d="M340.8,74.7l2.1,1.9l14-0.5l1-1l-0.3,1h16l0.2-0.3l33.4,0.3l1-0.3l1.7,0.3l-0.1-0.2l11.3,0.7l8.4-0.3h3.4
	l2.9-0.4l0.6,0.2l2.5-0.4l-0.7,0.4l2.2-0.2l-0.7,0.2h1.4l-0.3-0.2h30.6L471,76l9.7,0.1l0,0l2.6-0.2l2.3,0.2l8-0.3l-0.4,0.1l3.9,0.2
	v-0.3l4.3,0.7l0.6,0.5l7.8-0.7l3.1,0.2l11-0.8l-0.2,0.3l3.5-0.2l0.1,0.3h1.6l0-0.2h13.5l-0.4,0.2l8.9-0.2l0.1-0.3l1.8,0.2l21.1-0.3
	l0.2,0.2h8.1l9.1-0.5l-8.7-0.4h-5.6l-2.8,0.2l-0.6-0.2l-1.2,0.2l-0.2-0.2l1.7-0.2l-3.7,0.1L570,75l-0.2-0.3h-1.1l0.6,0.2l-2.8,0.1
	v-0.2h-2.3l-0.8,0.2l0-0.2l-2.1,0.1l-0.4,0.3l-0.8-0.4l-0.7,0.3v-0.2l-6.6-0.1l0.1,0.2l-0.6-0.2l-2.8,0.2l-0.5,0.2l0.1-0.3h-1.2
	l0.8,0.3l-2.1-0.4H535l-0.1,0.2l-0.3-0.2h-42l-0.5,0.3l-2.1-0.1l0.8-0.2h-31.6l-0.3,0.2l-1.5-0.1l0.6-0.2h-20.9l0.1,0.2l-1.6-0.2
	l0.7,0.3l-13.8-0.3l-0.2,0.2l-0.2-0.2h-2l0.9,0.1h-1l-0.1,0.2l-0.4-0.4h-0.6l-0.6,0.3v-0.3h-1.9l0.9,0.6l-1.6-0.5l0.4-0.1l-4.9,0
	l0.2,0.3h-0.1l-0.3-0.3l-0.8,0.1l-0.2-0.1l-2.6,0.7l0.7-0.5l-1.3-0.2l-0.6,0.2l-0.1-0.2h-1v0.4l-0.5-0.3l-2.8,0.1l-2.4,0.2l-0.4-0.3
	l-1.1,0.2l0.5-0.3h-24.1l-0.4,0.2l-1.1-0.2h-1.9l0.7,0.1L340.8,74.7z M417.9,75.2l-0.4-0.2L417.9,75.2L417.9,75.2L417.9,75.2z
	 M406.4,75.3h-0.7H406.4z M358.8,75.8l-0.5-0.2l0.8,0.1L358.8,75.8z M344,75.8l-0.2,0.3l-0.1-0.1L344,75.8z"/>
<path class="st0" d="M83.4,96c0-0.7-0.1-1.5-0.2-2.2c0,0-0.1-0.2-0.1-0.2s0,0.2,0,0.2c0,0.2,0,0.3-0.1,0.3s0.1-0.3,0.1-0.4
	c-0.2-0.2-0.5,0.5-0.6,0.3c0-0.1-0.1-0.3-0.1-0.4L82,94c0.1-0.1,0.1-0.2,0.1-0.3h-0.4c0,0,0,0,0.1,0.1c-0.1,0-0.2,0.2-0.4,0H81
	c-0.2-0.1-0.3-0.1-0.5-0.1h-0.2c0,0.1,0.1,0.2-0.1,0.3c0-0.1-0.1-0.2-0.2-0.3h-0.1c0,0.2,0.1,0.3,0.1,0.3c-0.2,0.1-0.2-0.1-0.3-0.3
	h-0.4c0,0.1,0,0.2,0.2,0.2c-0.1,0.2-0.2-0.2-0.3-0.2s-5.2-0.1-5.9,0c-0.1,0-0.2,0.1-0.2,0.2h-2.1c-0.8-0.1-1.5-0.1-2.3,0h-4.4
	c-0.1-0.1-0.2-0.1-0.3-0.1c-0.7,0-1.4-0.2-2.1-0.2c-0.8,0.1-1.6,0.1-2.5,0c-0.1,0-0.3,0-0.4,0.2h-0.3c0,0-0.2,2.4-0.2,3
	s0,1.2,0.3,1.6H59c0,0.2,0.1,0.3,0.3,0.3c0.3,0,0.7,0,1-0.1H61l1.9,0.2c0.5,0,1,0.1,1.5,0.2c0.3,0.1,1,0.4,1.1,0.4
	c0.4,0.2,0.7,0.5,1.1,0.8c0.4,0.6,0.7,1.3,0.9,2c0,0,0.1,0.5,0.1,1.1c-0.1,0.2-0.2,0.5-0.2,0.7c0,0.3,0.1,0.4,0.2,0.6
	c0,0.1,0.1,0.2,0.2,0.3c0,0.1,0,0.2,0,0.2c0,1,0,2-0.2,3l0.2,2.2c-0.1,0.9-0.1,1.7-0.1,2.6c0,1.4-0.1,2.8-0.2,4.2l-0.4,4.4
	c0.1,1,0.1,2,0,3c-0.1,0.6-0.1,2.2-0.1,2.2c-0.1,0.1-0.2,0.2-0.3,0.3c-0.2,0.1-0.3,0.1-0.5,0.1l-1.1-1l-0.9-1.3c0-0.1,0-0.2-0.2-0.3
	c-0.3-0.2-0.3-0.8-0.6-1.1c-0.2-0.2-0.3-0.4-0.5-0.6c-0.1-0.1-0.2-0.3-0.4-0.4c-0.1-0.1-0.2-0.3-0.3-0.5c-0.1-0.1-0.2-0.2-0.4-0.2
	c0,0,0,0,0,0l-0.2-0.2l-1-1.1c-0.1-0.1-0.2-0.1-0.3-0.1c-1.1-1.5-2.3-2.9-3.7-4.1c-1.6-1.5-3-3.1-4.3-4.8l-1-0.8
	c-1.8-2.4-3.8-4.7-6-6.8l-0.7-0.9l-0.8-0.8c-0.9-1.3-1.9-2.5-3.1-3.6c-0.6-0.6-1.3-1.2-1.9-1.9c0.1-0.1,0.1-0.2,0-0.3
	c-0.2-0.6-1-0.9-1.2-1.5c-0.1-0.1-0.2-0.2-0.3-0.2c-0.1-0.1-0.2-0.5-0.2-0.5l-2.2-0.6c-1.3,0.2-2.5,0.2-3.8,0.1c0,0.2,0.1,0.4,0,0.4
	s0-0.3,0-0.4h-0.3c0,0.1-0.1,0.2-0.1,0.3v-0.4h-0.5c0,0.3,0.1,0.5,0.2,0.8c-0.2-0.3-0.3-0.2-0.4-0.7l0.1-0.1l-1.7-0.1
	c-0.1,0.7-0.6,0-0.6,0.9c-0.1-0.4,0-0.2,0.2-0.7l-0.1-0.2h-0.2c0,0.1-0.1,0.2-0.1,0.3c0-0.1,0-0.2,0-0.3h-0.3c0,0.2,0.1,0.4,0,0.5
	l-0.1-0.5c-0.2,0.3-0.4,0.1-0.6,0c0,0-0.1,0.5-0.2,0.5s0.1-0.3,0.1-0.4c-0.2-0.2-0.5,0.5-0.6,0.3c0-0.1,0-0.2-0.1-0.4L25.4,94
	c0-0.1,0.1-0.1,0.1-0.2h-1.8c0,0.1,0,0.1-0.1,0.1c0-0.1,0-0.1-0.1-0.1c0,0-0.1,0.1,0,0.1c-0.1,0-0.2,0-0.2-0.1H22l0,0l-0.2-0.1
	l-0.3,0.5c0.1,0,0.2,0,0.3,0c-0.1,0.8-0.1,1.6,0.1,2.3l0.2,1.6c0,0,0.5,0.1,0.6,0.2s0.2,0,0.4-0.1s2.3,0.1,2.3,0.1
	c0.4,0.2,0.8,0.4,1.3,0.5c1.2,0.9,2.3,1.8,3.3,2.9c0,0.6,0.1,1.3,0.4,1.8c0,0.9,0,1.7,0.1,2.7l-0.1,3.5c0,0.1,0.1,0.2,0.2,0.2
	c-0.2,0.1-0.1-0.1-0.2-0.1v0.5l0.1,1.7c0.1,0,0.2,0,0.3,0c0.1,0-0.2,0.1-0.2,0.2c-0.2,0.2,0.2,0.3,0.1,0.4l-0.1-0.1
	c-0.1,0,0,0.2,0.1,0.3h-0.2v0.4c0.1,0.1,0.2,0.1,0.4,0.1l-0.2-0.5c0.2,0,0.2,0.3,0.4,0.3l-0.1,0.4c0,0,0-0.2-0.2-0.1s0,0.1-0.1,0.2
	l-0.2-0.1l0.1,1.9c0,0,0,0.2,0.1,0.2h-0.1l-0.1,4.7c0,0.2,0,0.3,0,0.4s0.3-0.1,0.2,0c-0.1,0-0.2,0-0.2,0.1c0,0.1,0,0.1,0,0.2
	c0.1,0,0.1,0.1,0.1,0.1h-0.1c0,0.1,0,0.3,0,0.4c0.1,0,0.2-0.1,0.3-0.2c-0.2,0.2-0.1,0.3-0.3,0.3c0,0.1,0,1.4-0.1,1.5
	s-0.1,0.5,0.3,0.5c-0.2,0.1-0.1,0-0.3-0.2c0,1,0.1,1.9,0.2,2.9c0,0-0.1,1.3-0.1,1.8c-0.1,0.5-0.1,1,0,1.5c0,0.3-0.1,2.6-0.1,3.4
	c0,0.1,0,0.1,0.1,0.2c0,0.5,0,1,0,1.5c-0.1,0.2-0.1,0.5-0.2,0.7c0,0.5-0.1,0.9-0.2,1.4c-0.1,0.2-0.3,0.5-0.4,0.7l-0.5,0.3L22,138
	c0,0-0.1,1.2-0.1,1.7c0,0.5,0,1-0.1,1.5c0,0.2,0.1,0.4,0.3,0.4v0.3l1.4,0.1l0.3,0.1c0.3,0.1,0.6,0.1,0.9,0c0,0,1.4,0,1.9,0
	c1.3,0,5.4-0.1,6-0.1l1.2,0.2c0-0.1,0.1-0.2,0.2-0.2c0,0.1-0.1,0.1-0.1,0.2l0.7,0.1c0.1,0,0.3-0.1,0.3-0.2c0.1,0.1,0.2,0.1,0.3,0.1
	c0.2-0.1,0.5-0.1,0.8-0.1c0.3,0,1.7,0.2,2.2,0.2c0-0.1,0-0.4,0-0.4c0-0.3,0.2,0.4,0.2,0.4c0.3,0,0.5,0,0.8,0c0.1-0.1,0.2-0.1,0.3,0
	s0.4,0,0.6,0l0.2-0.1l-0.2-1.2l0.2-0.7l0.8,1l0.2,0.4c0.1,0,0.1,0.1,0.2,0.3c0-0.3,0.3,0.1,0.4,0v0.2h0.3c0,0,0.2-0.1,0.2,0l0.5-0.1
	v-0.1c0.2-0.5,0.2-1.1,0.2-1.6c0-0.1,0-0.3,0-0.5c0.1-0.6,0-1.2-0.1-1.8V138h-0.3c-2.1,0.1-4.2-0.1-6.2-0.6
	c-0.3-0.1-0.7-0.3-0.7-0.3c-0.1-0.1-0.3-0.2-0.4-0.3c-0.1-0.2-0.1-0.4-0.2-0.6c0-0.4-0.1-0.8-0.2-1.2c0-0.3-0.1-3.9-0.1-5.2
	c0-0.3,0-1.1-0.1-1.8c0.2-0.6,0.3-1.3,0.1-1.9c-0.1-0.9,0-2.8,0-2.9c0-0.1-0.1-0.2-0.2-0.3c0-0.2,0.1-0.3,0.1-0.5
	c0.1,0,0.1-0.1,0.1-0.2c0.1-0.6,0.2-1.2,0.2-1.8c0-0.1,0-0.2-0.1-0.2c0.1,0,0.2-0.2,0.2-0.3c0-0.5-0.1-0.9-0.2-1.4
	c-0.1-0.5-0.1-2.5-0.1-2.8c0-0.8,0-1.6,0-2.4l-0.1-1l0.1-2.2c-0.1-1.1-0.1-2-0.1-2.9c0.2-0.1,0.4-0.1,0.7-0.2c0.2,0.2,0.9,1,1,1.2
	s0.4,0.7,0.7,1s1.5,1.3,1.5,1.5c0,0.1,0.1,0.2,0.3,0.2c0.3,0.4,1.2,1.8,1.5,2.1c0.3,0.3,0.6,0.6,0.9,0.9c0.2,0.4,0.5,0.7,0.8,1
	c0.1,0,0.1,0.1,0.2,0.1c0.2,0.3,1.9,2.4,2.5,3.1c0.6,0.7,1.3,1.3,2,1.8c0.5,0.6,1.1,1.1,1.6,1.7c0.1,0.2,0.3,0.5,0.5,0.7
	c0.2,0.2,0.6,0.3,0.7,0.6c0,0.1,0.1,0.2,0.3,0.2c0.7,0.6,1.3,1.2,1.8,1.8c0.4,0.4,0.8,0.9,1.3,1.2c0.2,0.3,0.5,0.6,0.8,0.8
	c0.3,0.4,0.6,0.7,0.9,1.1l1,0.8c0.2,0.3,0.4,0.6,0.6,0.9c0.2,0.4,0.5,0.8,0.9,1.1c0.1,0.1,0.2,0.1,0.3,0.1l0.3,0.4c0,0,0,0,0,0.1
	c0.3,0.6,0.7,1.1,1.2,1.5c0.3,0.4,0.7,0.7,1.1,1l2.7,2.9c0.2,0.4,0.5,0.8,0.8,1.2c0.1,0.1,0.2,0.1,0.3,0.1c0,0,0,0.1,0,0.1
	c0.1,0.3,0.3,0.5,0.6,0.7c0.3,0.1,0.6,0.4,0.8,0.6c0.1,0.2,0.2,0.4,0.4,0.5c0.3,0.4,0.7,0.6,1,1c0.1,0.2,0.3,0.4,0.6,0.5l0.6,0.6
	l0.8,0.4h2.2l0.7-0.6c0,0,0-0.2,0-0.4l-0.3,0.1c0,0,0-0.3,0.1-0.3s0.2,0,0.3-0.1v-0.2c-0.1-0.1-0.2-0.1-0.4-0.1V141
	c0-0.1,0.2,0.1,0.4,0.1V141c-0.2-0.1-0.3-0.2-0.2-0.2c0,0.1,0.1,0.1,0.2,0.1v-0.2h-0.2c0.1-0.3,0.1-0.7,0.3-1c0-0.5,0-1,0.1-1.6
	c-0.9-0.2,0.3-0.6-0.1-1c0,0,0-0.3,0.1-0.4c0-1.2,0.2-3.6,0.2-3.7h-0.2c0.5-0.2-0.5-0.6-0.3-0.6c0-0.1,0.3-0.1,0.5-0.1v-0.1
	c-0.3-0.1-0.7,0-0.4-0.2c0,0,0.1,0.1,0.1,0.1c0.1,0,0.1-0.1,0.2-0.1l-0.3-2c0-0.4,0.2-3,0.3-3.9c0-0.5,0.1-1.6,0.1-1.6h-0.3
	c-0.3,0,0.1-0.1,0.3-0.2c0-0.3,0.1-1,0.1-1c0-0.3-0.6,0.2-0.6-0.1l-1.1,0.1l-0.8-0.1l0.1-0.8l1-0.8c0.5-0.2,0.9-0.5,1.4-0.8H72
	c0-0.1,0-0.3-0.1-0.3c-0.2-0.1,0-0.3,0.1-0.3c0-0.3,0-0.9,0-0.9c-0.1-0.1-0.2-0.2-0.1-0.3c0-0.1,0.1-0.1,0.1-0.1c0-0.1,0-0.7,0-0.7
	s-0.1,0-0.2-0.1c0.1,0,0.1,0,0.2-0.1c0-0.1,0.1-3.6,0.1-3.8c-0.1,0-0.2,0-0.3-0.1c0.1,0,0.2-0.1,0.3-0.1s0-2.3,0-3.7l0.3-3.2
	l-0.1-4.3c0.1-0.9,0.3-1.9,0.6-2.7c0.2-0.4,0.4-0.7,0.7-0.9l0.8-0.2c0.9-0.2,1.8-0.3,2.8-0.4c0.1,0,0.2-0.1,0.3-0.1
	c0.8,0,3-0.2,3.6-0.2c0,0,0.7-0.3,0.8-0.3c0.7,0.2,1,0,1,0H83c0-0.1,0.1-0.2,0.1-0.2C83.3,97.2,83.4,96.3,83.4,96z M27.4,94.5
	c0-0.5,0,0,0.2,0C27.6,94.4,27.5,94.5,27.4,94.5L27.4,94.5z M30.2,109.5c0-0.1,0.1,0,0.2,0C30.4,109.7,30.3,109.5,30.2,109.5
	L30.2,109.5z M30.5,94.4l-0.1-0.3c0,0,0.1,0,0.1,0.2L30.5,94.4z M30.4,123.8c0,0,0,0.1,0,0.2C30.2,124,30.5,123.9,30.4,123.8
	L30.4,123.8z M30.4,121.2C30.4,121.1,30.4,121.1,30.4,121.2l0.1-0.1L30.4,121.2z M30.6,113.9c-0.2,0-0.2,0-0.3-0.1s0.1-0.1,0.2-0.1
	C30.4,113.8,30.7,113.7,30.6,113.9L30.6,113.9z M71.9,116.2c-0.2-0.1-0.3-0.2-0.3-0.3c0.1,0.1,0.3-0.1,0.5,0
	C71.8,116,71.8,116.1,71.9,116.2L71.9,116.2z"/>
<path class="st0" d="M136.3,125.4l-1.1-0.8c-0.5-0.1-1-0.2-1.4-0.3h-0.1c0,0-0.9,1.6-1.4,2.2c-0.1,0-0.1,0.1-0.2,0.1
	c-0.1,0.2-0.3,0.3-0.4,0.6s-0.1,0.3-0.2,0.5l-0.3,0.4l0,0c-0.3,0.1-0.4,0.3-0.5,0.6c-0.3,0.5-0.6,1-0.9,1.4c-0.2,0.3-0.8,1.1-1,1.4
	c-0.3,0.2-0.6,0.4-0.9,0.6c-0.4,0.3-0.8,0.6-1.1,1c0,0-0.5,0.3-0.6,0.3h-2.4c0,0-0.1-0.1-0.2-0.1c-0.9,0-3,0.1-3,0.1
	c-0.1-0.1-0.2-0.1-0.3-0.1h-0.2c-0.4-0.1-0.8-0.1-1.2-0.1c-0.5,0-1.6,0.1-1.6,0.1c-0.3-0.1-0.6-0.1-0.8-0.2c-0.2,0-0.4,0.1-0.7,0.2
	c-0.3,0.1-0.5,0.1-0.8,0.1h-0.4l-0.6-0.2c-0.3-0.1-0.6-0.3-0.8-0.6c-0.1-0.2-0.3-0.3-0.4-0.4c0.1,0,0.2-0.2,0.2-0.3
	c0-0.3-0.1-0.6-0.3-0.9c0-0.6,0-1.3,0-1.8c0-0.8,0.1-1.5,0.1-2.2c0.1-0.9,0.2-1.9,0.2-3.1c0-0.7,0.3-3.3,0.3-3.9
	c0.2-0.1,0.5-0.2,0.6-0.4l1.5-0.1c0.5,0,0.9,0.1,1.4,0.2c0.5,0.1,1,0.1,1.4-0.1c0,0,0.1-0.1,0.1-0.1l0,0c0,0,1.3,0.1,1.5,0.1
	l0.6,0.3c0.1,0.1,0.1,0.2,0.2,0.2l1.5,4.6c0,0.2,0,0.3,0.2,0.4l0.1,0.3h0.2c0.1,0.1,0.3,0.1,0.4,0.1c0.1,0,0.2,0,0.3-0.1h1.6
	c0,0,0-0.6,0-0.8h-0.1v-0.3v-0.4c0,0-0.1,0-0.1,0v-0.1c0,0,0.1,0,0.1,0c0-0.1,0-0.3,0-0.4c0.1-0.1,0.1-0.2,0.1-0.3
	c-0.1-0.7,0-1.5,0-2.2c-0.4-0.1-0.2-0.3,0-0.5c0-0.5,0.1-0.9,0-1.4s-0.1-0.9-0.1-1.3c0-0.3,0-0.5,0-0.8c0-0.1,0-0.1,0-0.2
	s-0.1,0.1-0.1-0.1l-0.3-0.3l-0.4-0.3l-1-0.4v-0.7l0.6-0.3l0.9,0.5h0.3c0-0.3,0-0.7,0.1-1c0-0.1,0-0.2-0.1-0.3v-0.1
	c0,0,0.1-0.1,0.1-0.1c0.1-0.5,0.1-0.9,0.1-1.4c0,0-0.6,0-0.6-0.3c0.1,0,0.1,0.1,0.2,0.1s0-0.1-0.1-0.1c0.1,0,0.2,0,0.3,0
	c-0.4-0.2,0-0.3-0.2-0.5c0.1,0,0.1,0,0.2,0c0-0.8,0-1.1-0.1-1.2l-0.1-0.1h-2.3c0,0-0.2,0.4-0.3,0.7c-0.1,0-0.1,0.1-0.1,0.2
	c-0.1,0.3-0.3,0.5-0.4,0.8c-0.1,0.2-0.1,0.5-0.1,0.8c-0.2,0.6-0.5,1.3-0.8,1.9c-0.3,0.2-0.5,0.5-0.7,0.7c0,0.1,0,0.1,0,0.2
	c-0.1,0.1-0.2,0.1-0.3,0.2c-0.5,0.2-1,0.3-1.5,0.3l-0.6,0.3c-0.9,0.1-1.8,0-2.6-0.1c0-0.1-0.1-0.1-0.1-0.2c-0.2-0.1-0.4-0.2-0.7-0.3
	c-0.2,0-0.3,0-0.4,0.2l-0.1,0.1c0-0.1-0.1-0.1-0.2-0.1c-0.2-0.1-0.4-0.4-0.5-0.6s0-0.3,0-0.5c0-0.6,0-1.2,0-1.7
	c0.1-0.1,0.1-0.2,0.2-0.2v-0.1c0-0.1,0-0.2-0.1-0.3c0-0.3,0-0.6,0-0.8s0-1,0-1.4c0.1-0.1,0.1-0.1,0.1-0.2c0-1.1,0-2.1,0-3.2
	c0.1-0.6,0-1.2-0.2-1.8l0,0c0-0.7,0-2.4,0-2.4c0.2-0.2,0.4-0.4,0.6-0.6c0.5,0,1-0.1,1.7-0.1s1.4,0.1,1.9,0.1l1.6-0.1
	c0.6,0.1,1.2,0.2,1.8,0.1c0.2,0,1.8,0,2.4,0c0.2,0.1,0.4,0.1,0.6,0.2c0.2,0.1,0.6,0.2,0.7,0.4c0.1,0.1,0.1,0.1,0.2,0.2l0.2,0.3
	c0.2,0.3,0.4,0.5,0.6,0.8c-0.1,0.1-0.2,0.3-0.1,0.4c0,0,0,0,0.1,0.1c0.4,0.3,0.7,0.6,1,0.9c0.1,0.1,0.1,0.1,0.2,0.1
	c0.6,0.8,1.2,1.6,1.6,2.5c0.1,0.2,0.1,0.3,0.2,0.5c0.1,0.3,0.5,0.4,0.7,0.2c0,0,0.1,0,0.1,0c0.1,0,0.1-0.1,0.1-0.2h0.6
	c0.5-0.1,1-0.5,1.3-0.9l0.1-0.1l-1.5-4.7c0-0.1,0-0.2,0-0.3c-0.1-0.2-0.2-0.4-0.2-0.7c-0.1-0.3-0.2-0.6-0.3-0.8
	c-0.2-0.6-0.4-1.2-0.4-1.8c0-0.2-0.2-0.3-0.4-0.3c0,0-0.1,0-0.1,0l-0.1-0.1h-0.1c-0.8-0.1-1.6-0.1-2.3-0.1c-1.1,0.1-1.9,0.1-2.8,0.1
	c0-0.1-0.2-0.3-0.3-0.2h-0.2c-0.1,0.1-0.2,0.1-0.4,0c-0.9,0.1-1.7,0.1-2.6,0.1c-0.7,0-4.5,0-4.5,0s-0.1-0.1-0.1-0.1
	c-0.4-0.1-0.8-0.1-1.2-0.1c0,0.1-0.1,0.2-0.2,0.2c0,0,0.1-0.1,0.1-0.1s-0.1,0-0.1,0s0-0.1,0-0.1l0,0c-0.2,0.1-0.3,0-0.5,0.1
	c0,0,0,0,0-0.1c-1.2,0-2.4,0.1-3.7,0.1v0.2c0,0-0.1,0-0.2-0.2h-1.8c-0.1,0.1-0.2,0.1-0.4,0.1v0.2c-0.2-0.1-0.7,0.2-0.8-0.1
	c0,0.1-0.3,0-0.4,0v-0.1h-0.2c0,0-0.2,0.1-0.3,0.1s-0.3-0.1-0.3-0.1s-0.9,0.3-1.2,0.1h-0.2c0.1,0,0.1-0.1,0.1-0.2h-0.5
	c0,0,0,0.1,0,0.1c0,0,0,0,0,0.1s-0.1,0-0.1,0.1c-0.1-0.1-0.2-0.3-0.4-0.3c0.1,0.3-0.4,0-0.3,0.3c-0.1-0.2-0.1,0-0.2-0.2
	c0.1,0,0.2,0,0.3-0.1h-0.3c-0.1,0-0.3,0-0.4,0.1c0,0.1-0.1,0.2-0.2,0.2l-0.1-0.1h-0.5v0.2c0,0.4,0,0.7-0.1,1.1c0,0,0,0.6,0.1,0.8
	l0,0c0.1,0.4,0,0.8-0.1,1.1c-0.2,0.5,0.5,0.5,0.5,0.5c0.4,0,0.8,0,1.2,0c0.3,0.1,0.5,0.2,0.8,0.3c0.3,0,0.6,0,0.8-0.1
	s0.4-0.1,0.6-0.1l0.4,0.6c0.4,0,0,0.3,0.4,0.3l-0.3,0.2v0.1c0.1,0,0.2,0,0.3,0c0,0.1,0,0.1,0.3,0c-0.3,0.1-0.5,0.4-0.5,0.7
	c0,0,0,0.1,0,0.1c0,0.4,0.2,0.8-0.1,1.2c0.1,0,0.2,0,0.3,0c-0.4,0.1,0.2,0.1,0.3,0.2l-0.6,0.1l0.4,0.1c0.1,0.3-0.5,0.6-0.2,0.9h-0.1
	c0,0.1,0.1,0.5,0.1,0.6v0.8c0,0-0.1,0.1-0.1,0.2c0,0.2,0,0.4,0,0.6h0.2v0.2l0,0h-0.1c0,0.1,0,0.2,0,0.2c0.1,0,0.1,0,0.2,0v0.1
	c0,0-0.1,0-0.2-0.1s0,1,0,1l0.1,1.4c0.2,0.1,0.1,0.2,0,0.3l0.1,1.4c0,0.8,0,1.7-0.1,2.6c0.1,0.1,0.3,0.2,0.2,0.2s-0.1,0-0.2,0v0.1
	c0.2,0,0.3,0,0.1,0.1H106c-0.1,0.2-0.1,0.4-0.1,0.7c0,0.4-0.1,0.8-0.1,1.2c0,0.2,0,0.4,0,0.6c0.2,0,0.3,0.1,0.3,0.2
	s-0.1-0.1-0.2-0.1s0,0.1,0,0.1c0,0-0.1,0-0.2,0c0,0,0.1,1.6,0.1,2.3c0,0.1,0,0.1,0.1,0.2v1h0.2c0.2,0,0,0-0.2,0.1v1.8h0.2
	c-0.1,0.2,0.4,0.5-0.2,0.6v0.6c-0.1,0.5-0.1,1.1-0.1,1.7c0,0.1,0,0.1,0.1,0.2v1.6c-0.1,0.7-0.1,1.4-0.1,2.1c0.1,0,0.2,0,0.3,0.1
	c-0.1,0-0.1,0-0.2,0.1l0,0c0,0.2,0.1,0.4,0.1,0.6c0,0.1,0,0.1,0,0.2c-0.2,0-0.3,0.1-0.3,0.2c0,0,0,0,0,0c-0.1,0.3-0.2,0.6-0.2,0.9
	l-0.3,0.1l-1.9,0.2h-0.5c-0.4-0.1-0.9-0.2-1.3-0.2c-0.2,0-0.3,0.1-0.3,0.2c-0.1,0-0.1,0-0.2,0l0.2,2.4c0.2,0.1,0.4,0.2,0.6,0.3
	c0,0,0-0.1,0-0.1c0.1,0.2,0.2-0.1,0.3-0.1l0.1,0.4c0.1-0.1,0.1-0.2,0.1-0.2c0.4,0.1,0.7,0.4,1,0.4h1c0.4,0.1,0.8,0.2,1.2,0.2
	c0.3,0,0.7-0.1,1-0.1c0.3,0.1,0.6,0.1,0.8,0c0.6,0,1.1,0,1.7,0.1c0.1,0,0.3-0.1,0.3-0.2l22.3-0.2c0.1,0,0.4,0,1-1.5
	c0.2-0.1,0.3-0.3,0.4-0.5c0.1-0.2,0.1-0.6,0.2-0.8c0.1-0.1,0.1-0.3,0-0.4c0-0.1,0.1-0.4,0.1-0.4c0.1,0,0.1-0.1,0.1-0.2
	c0.1-0.5,0.8-1.5,0.9-2c0-0.1,0-0.2,0-0.3v-0.1c0.1,0,0.2-0.1,0.2-0.2c0.3-0.9,0.7-1.8,1.1-2.6c0.2-0.4,0.4-0.9,0.6-1.3
	c0.1-0.1,0.1-0.3,0-0.5c0,0,0,0,0,0L136.3,125.4z M101.9,98.9v-0.2l0.1-0.1L101.9,98.9z M102.2,98.9v-0.2h0.1L102.2,98.9z
	 M102.8,98.9C102.8,98.9,102.8,98.8,102.8,98.9c0-0.1,0.1,0,0.1-0.1L102.8,98.9z M105.3,133.4c-0.1,0,0.3,0,0.3,0.1
	S105.3,133.4,105.3,133.4L105.3,133.4z M105.9,103.2C106.1,103.2,106,103.1,105.9,103.2h0.4H105.9z M105.9,130.1
	c0.2-0.1,0.2-0.1,0.1-0.2c0.2,0.1,0.3,0.1,0.3,0.2S106.2,130.1,105.9,130.1L105.9,130.1z M106.5,103.4L106.5,103.4l0.2-0.1
	L106.5,103.4z M124.3,133.8L124.3,133.8l-0.2,0.1L124.3,133.8z M124.8,134.2l-0.4-0.1L124.8,134.2
	C124.7,134.1,124.8,134.1,124.8,134.2L124.8,134.2z"/>
<path class="st0" d="M210.3,98.8c-0.4,0-0.8,0-1.2-0.1h-0.9c-0.1,0.2,0.2,0.6-0.1,0.6c0-0.2,0-0.4-0.1-0.5h-0.2
	c0,0.2-0.1,0.3-0.2,0.4v-0.4c0,0-0.6,0-0.6,0c0,0.3,0.1,0.6,0.3,0.8c-0.2-0.3-0.4-0.2-0.5-0.7l0.1-0.2c0,0-0.2,0-0.3,0
	s-0.1,0.2-0.2,0h-1.9v0.4l0,0v-0.3h-0.2c-0.1,0.2-0.1,0.4-0.2,0.1c0,0,0.1,0,0.1,0l-0.1-0.1h-0.8c-0.1,0.8-0.8,0-0.8,0.9
	c-0.2-0.4,0-0.2,0.2-0.7l-0.2-0.3h-0.2L202,99c0,0,0-0.2,0-0.2h-0.3c0,0.2,0.1,0.4,0,0.5l-0.1-0.4h-0.1c-0.1,0.1-0.3,0.1-0.4,0h-0.4
	c0,0,0,0.4-0.1,0.4v-0.4h-0.2c-0.2,0.1-0.4,0.4-0.6,0.3c0-0.1,0-0.2-0.1-0.3h-0.3l-0.2,0.2c0.1,0,0.1-0.1,0.1-0.2h-0.1
	c-0.2,0-0.5,0-0.6,0.1c-0.2,0.2-0.1,0.4,0,0.7c0.1,0.2,0.1,0.5,0.1,0.7c0,0.6,0.1,1.7,0.5,1.7c0.2,0,0.6,0,1.1,0.1
	c0.9,0,1.9,0.1,2.8,0.3c0.1,0.4,0.1,1.2,0.2,1.2c-0.1,0.6-0.4,1.1-0.6,1.7s-0.3,2.1-0.4,2.7c-0.4,0.4-0.6,0.9-0.7,1.4
	c-0.1,0.5-0.2,1-0.4,1.5c-0.1,0.3-0.7,2-0.8,2.5l-0.1,0.6l-0.8,2.3l-0.5,1.9l-0.9,1.8l-0.7,1.7c-0.1,0-0.3,0.1-0.3,0.2c0,0,0,0,0,0
	c-0.1,0.6-0.7,1.4-0.6,2.1l-0.9,2.2c-0.1,0-0.2-0.1-0.4-0.2c0-0.1-0.1-0.2-0.1-0.2c0-0.1,0-0.2,0-0.3c-0.2-0.8-0.5-1.6-0.9-2.3
	c-0.1-0.4-0.2-0.8-0.2-1.1c0-0.2,0-0.4,0-0.5c-0.2-0.5-0.4-0.9-0.6-1.3l-2.1-6.9l-0.1-0.8l-1.4-4.4l-0.1-1.2l-1-3.5
	c0.1-0.5,0.5-0.5,1-0.6c0.3-0.1,0.5-0.2,0.7-0.3c0,0,1.6,0.1,2.9,0c0.1-1.1,0.1-2.2-0.1-3.4c-0.7-0.1-1.5-0.1-2.2-0.1l-2.5-0.2
	c-0.5,0.2-6.5,0-7.5,0c-0.5,0-2.2,0-3,0.1h-1.4v0.2l-0.4,0.2h-0.2l0.2,2.9h0.1c0.1,0.1,1.9,0.1,1.9,0.1l0.1,0.1
	c0.1,0.1,0.4,0.1,0.5,0h0.2c1.6,0,2.1,2.2,2.8,5.2l0.1,0.3c0,0.1,0,0.2-0.1,0.4c-0.3,0.6-0.4,1.2-0.6,1.9c0,0.1,0,0.1,0,0.1
	c-0.5,1.2-1.8,3.7-1.9,4.3c0,0.1,0,0.2,0.1,0.3l-0.1,0.3c0,0-1.6,2.5-1.7,2.7c-0.1,0.2-0.1,0.5-0.2,0.7l-0.9,1.8l-0.1,0.6l-1.3,2.4
	c-0.1,0.1-0.8,1.7-1.4,2.8c0,0-0.1,0-0.1,0c-0.1,0-0.2,0-0.2,0c-0.6-1.5-1-2.8-1.3-3.8c0.1-0.1,0.1-0.2,0.1-0.3
	c-0.2-0.4-0.4-0.9-0.6-1.3l-1.5-4.6l-0.5-1.7c0-0.9-0.3-1.7-0.6-2.4c-0.6-1.2-0.9-2.5-1-3.9l-0.2-1.2l-0.3-0.8
	c-0.1-0.3-0.1-0.7-0.2-1c-0.1-0.6-0.2-1.3-0.5-1.8l-0.1-0.8c1.3-0.3,2.6-0.4,3.9-0.4h0.2v-0.2c0,0,0.1-0.7,0.1-1.2
	c0-0.7-0.1-2-0.1-2v-0.2h-0.6c0,0.2,0.1,0.3,0,0.3l-0.2-0.3h-1.1c0,0,0.1,0.4-0.1,0.4c0-0.1,0-0.3,0.1-0.4h-0.2
	c-0.3,0.1-0.5,0.5-0.7,0.4c0-0.1-0.1-0.2-0.1-0.3h-0.1l-0.2,0.2c0-0.1,0-0.1,0-0.2l-0.7,0.1l-1.1-0.1c-0.3,0-5.5,0.1-7.1,0.1
	l-1.1,0.2l-1.6,0l-2.2,0.1V99c-0.1,1.1,0,2.2,0.3,3.2v0.1h2.4c0.3,0.3,0.8,0.3,1.2,0.4c0.1,0,0.2,0,0.3,0c0.2,0.1,0.3,0.2,0.4,0.4
	c0,0.1,0.1,0.3,0.2,0.5h0.2l-0.2,0.1l0.1,0.4c0,0.2,0,0.3,0.1,0.5s0.1,0,0.2-0.1c-0.1,0.1-0.1,0.2-0.2,0.3c0,0.1,0.1,0.3,0.1,0.4
	c0.1,0.3,0.3,0.6,0.5,0.9c0.3,0.8,0.8,2.6,0.8,2.6c0.1,0.7,1.3,4.1,1.5,4.8l0.6,2.3l0.4,0.8l0.1,0.7l0.4,0.6c0,0,2.1,7.8,2.6,9.1
	l0.2-0.1c0.3-0.1,0,0.1-0.2,0.2c0.2,0.6,0.5,1.1,0.7,1.7l0.2,0.3h0.1c-0.1,0.2,0.5,0.5,0.1,0.8l2.1,6.8c0.1-0.1,0.2-0.1,0.2,0
	c-0.1,0-0.1,0.1-0.2,0.1l0.2,0.7c0,0,1.1,0.1,1.4,0.1c0.5,0,0.9-0.1,1.4-0.2l0.9-1.5c0,0,2.8-6,3.1-6.6c0.1-0.1,0.1-0.2,0-0.3v-0.1
	c-0.1-0.1,0.1-0.8,0-0.9c-0.3-0.5-0.5-1-0.5-1.5l0.1-0.9c0.3,0.1,0.8,0.8,0.8,0.8l0.7,0.6c0.3-0.3,0.5-0.7,0.7-1.1
	c0.1-0.4,0.3-0.8,0.5-1.2c0.1-0.1,0.1-0.1,0.1-0.2l1.3-2.7c0,0,0.7-2,1.7-4.2c0.6-1.4,1.5-3,2-3.9c0.1,0.1,0.2,0.2,0.3,0.3l0.1,0.4
	c0,0.4,0.1,0.8,0.2,1.2c0,0.1,0.1,0.2,0.2,0.2v0.2c0,0.4,0,0.9,0.2,1.3c0.2,0.6,0.4,1.2,0.7,1.8c0,0.1,0.1,0.1,0.2,0.2l0.2,0.6
	c0.1,0.3,0.1,0.6,0.2,0.9c0.2,0.6,0.4,1.2,0.7,1.8c0,0.7,0.1,1.4,0.4,2.1c0.4,1.3,0.9,2.6,1.5,3.9l0.5,1.8c0.5,1,0.9,2.1,1.1,3.3
	c0.2,0.7,0.7,1.3,0.9,2.1c0,0.1,0.1,0.2,0.2,0.2l0.7,2l0.8,0.2l1.8-0.1l0.4-0.9c0-0.1-0.3-0.2-0.3-0.3h0.4v-0.1l-0.3-0.1
	c0-0.4,0.8-0.6,0.6-1c0.1,0,0.1,0,0.2,0v-0.1c-0.1-0.1,0.1-0.4,0.2-0.5l0.7-1.9l-0.4-0.1c0,0,0.1-0.3,0.2-0.3s0.2,0.1,0.3,0v-0.1
	c0-0.1-0.2-0.2-0.3-0.3l-0.1-0.1c0-0.1,0.2,0.2,0.4,0.3v-0.1c-0.1-0.1-0.3-0.3-0.1-0.3c0,0.1,0,0.1,0.1,0.2l0.1-0.2l-0.3-0.1
	c0.2-0.3,0.4-0.6,0.6-0.9l0.5-1.4c-0.8-0.5,0.5-0.5,0.2-1c0,0,0.1,0,0.1,0c0-0.1,0-0.3,0.1-0.3l1.3-3.6c0-0.2-0.3-0.5-0.2-0.5
	s0.2,0,0.4,0.1v-0.1c-0.2-0.1-0.5-0.2-0.2-0.2c0,0,0,0.1,0.1,0.1h0.1l1-2.8c-0.1-0.1-0.1-0.2-0.1-0.2c0,0.1,0.1,0.1,0.2,0.1l1.4-3.4
	c0,0,0.1-0.3,0.1-0.6h-0.2c-0.2-0.1,0-0.1,0.2-0.1c0.2-0.6,0.4-1.1,0.8-1.6l0.1-0.2c0-0.1,0-0.1,0-0.2l-0.3-0.2l-0.7-0.1l-0.1-0.7
	c0.4-0.2,0.9-0.2,1.3-0.2c0.1,0,0.2,0,0.3,0c0,0,0.1-0.2,0.1-0.2c-0.2-0.2,0.1-0.2,0.1-0.2l1.6-3.5c0-0.1,0-0.2,0.1-0.3c0,0,0,0,0,0
	c0-0.1,0-0.2-0.1-0.2c0-0.1,0.1,0,0.2,0c0-0.1,0-0.2,0-0.3c0,0,0,0.1,0,0.1l0.7-0.7l-0.1-0.1c-0.1,0-0.3-0.1-0.4-0.1
	c0.1,0,0.2,0,0.3,0l0.1,0.1l0.1,0.1c0.3-1,0.7-1.9,1.2-2.8c0-0.1,0.1-0.1,0.1-0.2c-0.1,0-0.2-0.1-0.3-0.2c0.1,0,0.2,0.1,0.2,0.1
	c0.2-0.2,0.5-0.5,0.7-0.8c0.2-0.5,0.4-0.9,0.8-1.3c0.3-0.3,0.5-0.6,0.8-0.8l2.6-0.3h0.9c0.4,0,0.6-0.3,0.8-0.8
	c0.1-0.4,0.1-0.9,0.1-1.3l0.1-1.5L210.3,98.8z M201.8,99.5c0-0.5,0.1,0,0.2,0C202,99.5,201.9,99.5,201.8,99.5z M170.6,99.2
	c-0.1,0-0.2,0.1-0.3,0.1C170.3,98.8,170.6,99.2,170.6,99.2z M158.9,103.8L158.9,103.8l0.1-0.1L158.9,103.8z M168.9,135.2
	c0.1-0.1,0.1-0.2,0-0.3c0.2,0,0.4,0,0.4,0.1C169.1,135,169,135.2,168.9,135.2L168.9,135.2z M206.3,108.9c-0.1,0.1-0.2,0.1-0.3,0
	C206,108.9,206.1,108.9,206.3,108.9L206.3,108.9z M205.4,109.4c-0.1-0.1-0.2-0.3-0.2-0.4c0.1,0.1,0.3,0,0.4,0.2
	C205.4,109.2,205.3,109.3,205.4,109.4L205.4,109.4z M207.5,99.4l-0.1-0.2C207.4,99.1,207.5,99.1,207.5,99.4L207.5,99.4z
	 M206.1,107.6c0.1,0.1,0.1,0,0.2,0l0.1,0.2C206.2,107.8,206.1,107.8,206.1,107.6L206.1,107.6z M206.4,107.5
	C206.4,107.4,206.4,107.4,206.4,107.5C206.3,107.4,206.5,107.3,206.4,107.5L206.4,107.5C206.5,107.7,206.6,107.5,206.4,107.5
	L206.4,107.5z"/>
<path class="st0" d="M453.6,142.2c-2.3,0.2-8,0.7-10.7-4.2l-0.6-0.2l-0.4-0.5l-1.1-1.1c-0.1-0.4-1.6-1.9-3.8-4.7
	c0.1-0.3-1.2-1.9-1.5-2.3c-0.3-0.4-0.6-0.8-0.9-1.1c-0.2-0.1-0.3-0.3-0.5-0.4l-1.1-1.4c0.1-0.1,0-0.3,0-0.4
	c-0.8-0.8-1.3-1.8-2.1-2.6c0,0-0.1,0-0.1,0c-1-1.2-1.9-2.7-2.4-4.2c0-0.1,0.1-0.2,0.4-0.3s0.6,0.1,0.9,0s0.4-0.3,0.7-0.4
	s0.6-0.2,0.9-0.3c0.5-0.2,0.9-0.5,1.2-0.9c1.7-0.9,3.1-2.4,3.8-4.3c0.2-0.2,0.4-0.4,0.4-0.7c0-0.5-0.1-1.9-0.1-2.3
	c0-0.2,0.1-0.4,0.1-0.5c0-0.6-0.1-1.1-0.1-1.7c0-0.1,0-0.2-0.1-0.2c0,0-0.1-0.6-0.1-0.8l-0.2,0.1c-0.2,0,0.1-0.1,0.2-0.3
	c0-0.1-0.1-0.3-0.1-0.4s-0.2-0.1-0.2-0.2l-0.3-0.2H435l-0.5-0.2l0.2-0.3l0.4-0.3l0.4,0.1c-0.1-0.2,0-0.2,0-0.3l-0.2-0.5
	c0,0.1,0,0.1-0.1,0.1c0.1-0.3-0.4,0.1-0.3-0.2c0.2-0.1,0.3-0.2,0.3-0.2c-0.3-0.5-0.6-1-0.9-1.4l-0.6-0.5c-0.9-1.3-3.8-2.5-5.7-2.8
	c0,0.1,0,0.2-0.1,0.1v-0.1l-0.5-0.1c-0.2,0-0.4,0-0.6,0c0.1,0.2,0.2,0.4,0.2,0.5c-0.2-0.3-0.3-0.2-0.5-0.5c-0.7,0-1.4-0.1-2-0.3
	h-0.4c-0.2,0.3-0.8-0.1-0.8,0.6c-0.2-0.4,0-0.2,0.3-0.7l-0.7-0.1l-0.1,0.1c0,0,0-0.1,0-0.1h-0.4c0,0.2,0.1,0.3,0,0.4l-0.1-0.3
	c-0.2,0-0.4,0-0.5,0h-0.5c0,0,0,0.3-0.2,0.3l0.1-0.3h-0.4c-0.2,0.1-0.4,0.4-0.6,0.3c0-0.1,0-0.2-0.1-0.3h-0.3l-0.2,0.1
	c0.1,0,0.1-0.1,0.1-0.2l-0.2-0.1h-0.4c-0.1,0-0.2,0-0.3,0l-3.5,0.2c-0.5,0.1-1,0.1-1.5,0c-0.4,0-0.7,0-1.1,0.1l-0.7-0.2l-1,0.2h-1.1
	c-0.3,0-2-0.1-2.4-0.1h-0.3l0.1,0.1c-0.1-0.1-0.4,0.3-0.7,0c0.1,0,0.1-0.1,0.1-0.1h-0.5c0,0,0,0.1-0.1,0.1v-0.1h-1.2v0.1l-0.3-0.1
	c-0.8,0-1,0.1-1.5,0.1c-0.1,0-0.1,0-0.2,0.1c-0.2,0.2-0.1,0.6,0,1.5c0,0.3,0,1.7,0,2l1.1,0.2h1.2c0.2,0.2,0.4,0.3,0.6,0.4
	c0.3,0.1,0.5,0,0.8-0.1c0.6,0,1.2,0.1,1.8,0.2c0.9,0,1.8,0.1,2.7,0.3l0.2,0.6v0.8h0.1c0,0.1,0,0.2,0.3,0.1c-0.1,0.1-0.2,0.2-0.3,0.3
	l0.2,0.7v1.1l0.1,0.9l-0.1,1c0,0,0.1,0.8,0.1,1.2c-0.2,0.5-0.4,1.1-0.5,1.6l0.3-0.1l0,0.3c0,0.1-0.1,0.1-0.2,0.1c0,0.1,0,0.2,0,0.2
	c0.1,0,0.2,0,0.3,0.1v0.1c0,0-0.1,0-0.3-0.1c0,0.2,0.1,0.3,0.1,0.5c0,0.1,0,0.3,0,0.4c0.1,0.2,0.2,0.4,0.3,0.6
	c0,1.9-0.2,3.6-0.2,3.7l0.2,1.6l-0.2,1.7c0.1,0.1,0.2,0.2,0.1,0.2s-0.1,0.1-0.1,0.1v0.1c0.1,0,0.2,0.1,0,0.2l0.1,2.6
	c0,0.1-0.1,0.3-0.1,0.4c0.1,0,0.1,0.1,0.1,0.2c0,0-0.1-0.1-0.1-0.1c-0.1,0.2-0.1,0.4-0.1,0.6c0,0.4,0.1,0.8,0.2,1.2
	c0,0.4,0.1,0.8,0.2,1.3c-0.1,0.9-0.1,1.8-0.1,2.7c0.1,0.4,0,0.8-0.1,1.2l-0.1,1.1c-0.2,0.6-0.4,0.7-0.7,0.8
	c-0.2,0.1-0.4,0.2-0.5,0.3c-0.1,0-0.3,0.1-0.4,0.2l-3.3,0.3c0,0-0.1,1.3-0.1,1.7s0,1.4,0,1.4s1.4,0.1,2,0.1c0.3,0.1,0.7,0.2,1,0.3
	c0.6,0,1.3-0.1,1.9-0.2c0,0,6.8,0.1,6.9,0.1v-0.1c0-0.2,0-0.1,0.1,0.1c0.5,0,1.6,0,1.6,0V137c0.2,0.1,0.5-0.5,0.6,0.2l0,0
	c0-0.3,0.2,0.1,0.3,0c0.4,0,0.7,0,1.1,0.2l0.1-0.2c0,0,0.2-0.1,0.3,0.1c0.1,0,0.1,0,0.2,0c0-0.1,0.1-0.1,0.1,0h0.2v-0.1l0,0l0,0
	c0,0,0.1-0.1,0-0.2c0,0.1,0.1,0.2,0.1,0.3h0.4c0-0.1,0-0.1,0-0.2l0.1,0.2h0.3v-0.4v0.3v0.1c0-0.1,0-0.2,0-0.2l0.1,0.2h0.2
	c0,0,0.1-0.1,0.1-0.1c0.1-1.1,0.1-2.2,0-3.3h-0.7l-0.7-0.2c0,0-0.5,0-0.7,0c-0.3-0.1-0.7,0-1,0.1l-0.8-0.3l-1.3-0.1l-0.5-0.5
	l-0.1-0.4l0.2-0.9l-0.2-1.2l0.1-1.1c-0.1-0.6-0.2-1.2-0.2-1.8c0.2-0.3,0.4-0.6,0.4-0.9c0-0.3-0.1-0.6-0.1-0.9c0-0.2,0-0.4,0-0.7
	c0.1-0.6,0-1.3-0.2-1.9c0-0.1,0-1.6,0-2.2c0.1-0.2,0.4-0.9,0.4-1s2.9,0.3,3,0.3c0.2,0.5,1.2,2.7,1.7,3.9c1.1,2.1,2.3,4.1,3.6,6
	l0.1-0.1l0,0.1l0.8,1.1c0,0.1,0,0.3,0.1,0.4c0.1,0.5,0.5,0.6,0.8,0.9c0.3,0.4,0.6,0.8,1,1.1c0.2,0.1,0.4,0.3,0.6,0.4
	c0.3,0.4,0.7,0.8,1.1,1.2c0.9,1,4.9,4.8,4.9,4.8l1.6,1c0.1-0.1,0.3-0.1,0.3,0s0,0.1,0,0.2l0.1,0.1c0.1-0.1,0.1,0,0.1,0.1l1,0.6
	l0.9,0.5l0.6,0.4c0,0,0.1,0,0.1,0h-0.1c0.8,0.5,1.6,1,2.5,1.2l0.9,0.1v-0.1c0-0.2,0.1-0.1,0.1,0.1l0.6,0.1l0.8,0.3h0.5l0.1-0.3
	l-0.2-0.3l0.5-1.1l0.5,0.2l-0.1,1.3h0.4l0.1,0.3c0.1,0,1,0.1,1.3,0.1c0-0.1,0.1-0.1,0.2,0s0.6,0,0.8-0.1c0,0,0-0.1,0-0.1
	c0,0,0,0.1,0.1,0.1l0.8-0.1v-0.1v0.1h0.2v-0.2v0.1c0,0,1.4-0.3,1.7-0.4c0-0.1-0.1-0.2-0.1-0.2c0,0.1,0.1,0.2,0.2,0.2
	c0.2-0.1,0.4-0.1,0.5-0.2c-0.1-0.1-0.1-0.3-0.1-0.4c0,0.1,0.1,0.1,0.1,0.2l0,0.2c0.3-0.1,0.6-0.2,0.9-0.4
	C454.5,143.7,453.6,142.2,453.6,142.2z M423.7,136.7v0.3l-0.1-0.1L423.7,136.7z M423.3,136.7c0,0,0,0.1,0,0.2s0-0.1-0.1-0.1
	L423.3,136.7z M427.3,99.2L427.3,99.2l-0.1-0.2C427.2,99.1,427.2,99.1,427.3,99.2L427.3,99.2z M423,99.2c-0.1,0-0.2,0.1-0.3,0.1
	C422.7,98.8,422.8,99.3,423,99.2L423,99.2z M427.6,115.4c-0.2,0.1-0.4,0.2-0.6,0.3c-0.3,0.1-0.6,0.2-0.9,0.4
	c-0.1,0.1-0.2,0.2-0.3,0.2l-1.5,0.2h-1.7h-0.3c-0.6-0.1-1.2-0.2-1.8-0.2c-0.2,0-0.4,0-0.7,0s-0.5,0-0.8,0l-0.3-0.1c0,0,0-0.1,0-0.1
	h-0.3c0-0.1,0.1-0.3,0.2-0.4c0,0-0.1-0.1-0.1-0.1c0.2-0.2-0.5-0.5-0.3-0.6c0.1,0,0.3-0.1,0.4-0.1l-0.3-0.3c0.1,0.1,0.2,0.1,0.3,0.1
	c0-0.1,0-0.3,0-0.4l0,0c0,0-0.1-0.2,0-0.3c0-0.3,0-0.7,0-1.2c0,0-0.1,0-0.1-0.1c0,0,0.1,0,0.1,0v-0.2c-0.1,0-0.1,0.1-0.1,0.1
	c0-0.1,0-0.2,0.1-0.2v-0.3l0,0c0,0,0-0.1,0-0.1v-0.3c0-0.7,0-1.9,0-3.1c0.1-0.4,0.2-0.8,0.2-1.2c0-0.4-0.1-0.8-0.2-1.2
	c0-0.7,0-1.2,0-1.2l0.2-2.2c0.2-0.1,0.5-0.2,0.8-0.2h4.2c2.1,0.1,4.5,2.1,4.7,3.8l0.2,1c0.1,1,0.2,1.9,0.3,3c0,0.2-0.1,0.6-0.1,0.9
	C428.8,112.6,428.6,114.4,427.6,115.4L427.6,115.4z M452.1,144c0-0.1,0.1-0.3,0.1-0.4c0,0.1,0.1,0.2,0.1,0.4
	C452.2,143.9,452.1,143.9,452.1,144L452.1,144z"/>
<path class="st0" d="M500.4,125.9l-0.4-0.1c0,0-0.3-0.1-0.2-0.3l0.5-0.4h0.4c0,0,0-0.1,0-0.1c0.1,0.1,0.2,0,0.4,0l0.1-0.3l0.2-2
	l-2.8-0.2c0,0-0.5,1.5-0.8,2.2c-0.1,0-0.2,0.1-0.2,0.2c-0.2,0.3-0.3,0.6-0.4,0.9c-0.1,0.4-0.3,0.8-0.5,1.2c-0.2,0.3-0.3,0.4-0.2,0.7
	c-0.2,0.4-0.7,1.3-0.9,1.7c-0.5,0.9-1,1.7-1.7,2.5h-0.4c-0.2,0-0.4,0.2-0.6,0.3c-0.4-0.1-0.6-0.3-1,0.1c-0.2,0.1-0.4,0.3-0.5,0.4
	c-1.8,0.3-3.5,0.5-5.3,0.5c-0.1,0-5.1,0-5.7-0.3c0-0.1,0-0.2,0-0.3c0-0.4-0.1-0.8-0.3-1.1l0.1-1.4c0.1-0.4,0.1-0.9,0-1.3
	c0-0.2-0.1-2.9-0.1-4c-0.2,0-0.4,0.1-0.4,0h0.4v-0.2c-0.1,0-0.2-0.1-0.2-0.1h0.2V124c-0.2,0-0.5,0.1-0.7,0.2
	c0.5-0.4,0.7-0.4,0.7-0.4c0-0.4,0-1.5,0-1.6c-0.4-0.2,0.1-0.6-0.7-0.6c0.4-0.2,0.2,0,0.7,0.2h0.1c0-0.1,0-0.6,0-0.7s-0.3,0-0.3,0
	l0.3-0.1V120c-0.1-0.1-0.3-0.2-0.2-0.3c0.1,0,0.1,0,0.2,0c0-0.1,0-5.9-0.1-9.1c0.1-1,0.1-2,0.1-3c0.2-0.7,0.2-1.3,0.2-2
	c0-0.3,0.2-1.5,0.2-1.8l0.1-0.5c0.1-0.1,0.3-0.2,0.4-0.3c0-0.1,0.1-0.1,0.1-0.2h1.2c0.2,0.1,0.4,0.1,0.6,0.1c0.2,0,0.5-0.1,0.7-0.2
	h1.8v-0.2c0-0.8,0.1-1.7,0.2-2.5l-0.2-1.2c-0.8-0.1-1.7-0.1-2.5-0.1h-6.4c-0.4,0-0.7,0.1-1,0.2l-0.7-0.1h-0.7
	c-0.1-0.1-0.3-0.1-0.4-0.2c-0.2-0.1-0.4,0-0.5,0.1c-0.3-0.2-0.6-0.3-0.9-0.2c-0.2,0-0.4,0.1-0.6,0.3l-1.3,0.1c-0.9,0-1.8,0-2.8,0.2
	v0.9c-0.2,0.3-0.2,0.6-0.1,0.9c0,0.1,0.1,0.3,0.1,0.4l0.2,1.5h0.1c0-0.1,0-0.2,0-0.3c0.3,0,0.5,0.1,0.8,0.2c0.1,0.1,0.2,0.1,0.4,0.1
	c0.2,0,0.3,0,0.5-0.1c0,0,0,0.1,0,0.2h0.5c0.1,0,0.2-0.1,0.3-0.2c0,0.1,0,0.2,0,0.2h0.8c1.3,0.1,1.8,0.1,1.8,1.5c0,0,0,3.4,0,4
	c-0.1,0.3-0.2,0.7-0.2,1.1c0,0.3,0,0.5,0.1,0.8c0.5,0.2,0.1,0.5,0,0.8c0,0.1,0,0.1,0,0.2c0.1,0.3,0.2,0.6,0.3,0.9c0,0.4,0,3.7,0,4.9
	c0.1,0.1,0.2,0.2,0.2,0.2s-0.1,0.1-0.2,0.1v0.2c0.2,0,0.3,0,0.1,0.2l-0.1-0.1c0,1.3,0,2.6,0,3.8c0.1,0,0.3,0.1,0.3,0.2
	s-0.1-0.1-0.3-0.1s0,0.1,0.1,0.1c0,0-0.1,0-0.1,0v1.2l-0.2,1.3c0,0.4,0,0.8,0.1,1.1l-0.1,1.4c0,0-0.1,0.3-0.1,0.4
	c0.2,0,0.4,0,0.3,0.1s0.3,0,0.3,0c0.3,0-0.1,0.1-0.4,0.2s-0.4,0.2-0.2,0.3c0,0-0.1,0.1-0.1,0.1c0,0,0,0.2,0,0.3
	c0.1,0.3,0.4,0.5,0,0.7c0,0.4,0,0.7,0,1c0,0.2,0,0.4,0,0.6l0.3,0.1c-0.1,0.2-0.1,0.6-0.2,1c0,0.1-0.1,0.2-0.1,0.3s-0.2,1-0.2,1.1
	s-0.1-0.1-0.3,0c-0.2,0.1-0.4,0.3-0.4,0.6h-0.9l-1.1-0.1l-1.2,0.1c0,0-0.1,0.1-0.1,0.1s-0.2,0.1-0.4,0h-0.4l-0.3,1.5
	c0.1,0,0.1,0,0.2,0.1c-0.1,0-0.1,0-0.2,0.1l0.2,2l1.8-0.1l0.2,0.1c0.1,0,0.3,0,0.4,0.1c0.2,0,0.3-0.1,0.5-0.1
	c0.9-0.2,8.8-0.3,9.4-0.3l0.2,0.1c0.2,0,0.3,0.1,0.5,0.2c0.2,0,0.3,0.1,0.5,0.1c0.1,0,0.1,0,0.2-0.1c0,0,0,0.1,0,0.1
	c0.2-0.1,0.4-0.1,0.5,0c0.1,0,0.2-0.1,0.3-0.1c0.3,0,0.7,0,1,0.1c0.4,0,0.8-0.1,1.1-0.2h1.1l0.8,0.3c0.1-0.1,0.2-0.1,0.3,0h0.5
	c0-0.1,0-0.1,0-0.2c0.3,0.4,0.8-0.5,0.9-0.3c0.2,0,0.1,0.2,0.1,0.4h0.1c0-0.3-0.1-0.6,0.2-0.3c0,0-0.1,0.1-0.1,0.1
	c0,0.1,0.1,0.1,0.1,0.2c0.8,0,4.1,0,4.1,0c0-0.3,0.1-0.6,0.3-0.6c0,0.1-0.1,0.1-0.1,0.2s0.1,0,0.1-0.1c0,0.1-0.1,0.2,0,0.4
	c0.2-0.5,0.4,0,0.8-0.2c-0.1,0.1-0.1,0.2,0,0.3h0.7c0.6,0,1.1,0,1.7,0.1l0.8-0.1c0-0.1,0.1-0.1,0.1-0.2c0,0.1,0,0.1,0,0.2l1.1-0.1
	c0.1-0.1,0.3-0.2,0.3-0.3c0,0.1,0,0.1,0.1,0.2c0.1-0.1,0.1-0.2,0.1-0.3c0-0.4,0.1-0.8,0.2-1.2c0.1-0.7,0.2-1.3,0.4-2
	c0.3-0.8,0.5-1.6,0.6-2.4c0-0.4,0.5-3.6,0.5-3.6l0.3-1.5L500.4,125.9z"/>
<path class="st0" d="M571.4,117.2c0-0.6,0-1.1,0-1.7l-0.1,0.1v-0.1h0.1c0-0.2,0-0.4,0-0.6c0-0.1,0-0.2,0-0.2c0-0.1,0-0.2,0-0.3
	c-0.5-0.3-0.2-1.6-1-1.5c0.3-0.5,0.2-0.1,0.8,0.3v-0.1c-0.1-0.4-0.2-0.7-0.3-1.1l-0.1-0.1c0,0,0-0.1,0.1-0.1
	c-0.1-0.2-0.1-0.4-0.2-0.7c-0.1,0.1-0.2,0.2-0.3,0l0.1-0.4c-0.2-0.7-0.5-1.4-0.8-2c-0.1,0.1-0.2,0.1-0.3-0.1l0.3,0.1
	c-0.1-0.2-0.3-0.7-0.3-0.7c-0.3-0.2-0.5-0.4-0.6-0.7c0.1,0,0.1-0.1,0.2-0.2c-0.1-0.2-0.3-0.4-0.4-0.6l-0.2-0.2c0,0,0.1,0,0.2,0
	c-0.1-0.3-0.2-0.6-0.3-0.9c0,0,0,0.1,0,0.1c-0.1-0.2-0.4-0.4-0.5-0.8c-0.2-0.3-0.5-0.5-0.7-0.7c-0.4-0.6-0.9-1.2-1.4-1.8
	c0,0-0.1,0-0.3-0.2c0-0.3-0.1-0.6-0.3-0.8c-0.3,0-0.1,0.4,0,0.5c-0.3-0.2-0.5-0.6-0.4-1c-0.2-0.2-0.4-0.4-0.7-0.5
	c-0.1,0.1-0.3,0.2,0.2,0.6c-0.5-0.1-0.3-1-1-1h0.2c-0.2-0.2-0.4-0.4-0.7-0.5c-2.3-2.1-5.2-3.5-8.3-4.1l-0.9-0.1l-0.9-0.4
	c-0.1,0-2-0.2-2.8-0.2l-0.4,0.5l-0.3,0.2l-0.5,0.1l-0.1-0.2v-0.2l0.1-0.2c-0.1,0-0.2,0-0.2-0.1c0.1,0,0.2,0,0.3,0
	c0-0.1,0-0.2-0.1-0.3l-0.4-0.1l-0.1,0.2l-0.1-0.2h-0.2c0,0.1,0.2,0.3-0.2,0.3c0-0.1-0.1-0.1-0.2-0.2l-0.3,0.1l-1.5-0.2
	c0,0,0,0.1,0,0.1c0,0-0.1,0-0.1-0.1H545l0.1,0.2c-0.6-0.1-1-0.2-1.4-0.2c-1-0.1-2.4-0.2-2.6-0.2c-0.1,0.1-0.2,0.1-0.3,0.2
	c-0.1-0.1,0-0.2,0.1-0.2h-0.2c-0.3,0.2-0.7,0.2-1,0c-0.9,0-1.7,0.1-2.6,0.2h-1.5c-0.5-0.1-1.1-0.2-1.6-0.2c-0.6,0-1.2,0.1-1.8,0.2
	c0,0-2.4,0-2.9,0c-1,0-7.6,0-7.6,0l-3.1,0.2v1.1c0,0.2-0.1,0.4-0.2,0.6c-0.1,0.3,0,0.5,0.1,0.8c0.1,0.2,0.1,0.4,0.2,0.6
	c0,0.4,0.1,0.7,0.1,0.9c0.7,0.3,2.1,0,2.8,0.3h0.3v-0.1c0,0,0,0.1,0,0.1h0.1c0.1-0.1,0.1-0.3,0.2-0.3c0,0.1,0.1,0.3,0.2,0.4
	c0.1,0,0.2,0,0.2,0c0-0.1,0-0.1,0-0.2c0.6,0.1,1.3,0.2,1.8,0.4l2.3-0.2c0,0.1,0,0.1,0.1,0.2c0.3,0.3,1.3,0.2,1.3,0.7
	c0,0.2,0.1,3.6,0.1,3.6h0.1l-0.1,0.4v0.4h0.2v0.2c0,0-0.1,0-0.2-0.1c0.1,1.4,0,5.4,0,5.5c-0.2,0.9-0.2,1.8-0.2,2.6
	c0.1,0.6,0.2,1.2,0.1,1.9l0,0c0,0.1,0,0.3,0,0.4c0.2,0.2,0.4,0.3,0.3,0.4s-0.1,0.1-0.2,0.1v0.1c0.2,0,0.3,0,0.1,0.2
	c0,0-0.1-0.1-0.1-0.1s0,0.8,0,1s-0.3,1.4-0.3,1.6c0,0.3,0.1,0.6,0.2,0.8c0,0.1,0.1,0.1,0.1,0.2v0.3c0.1,0,0.2,0.1,0.2,0.2
	c-0.1,0-0.1-0.1-0.2-0.1v1c-0.1,0.1-0.1,0.3-0.1,0.4c-0.1,0.4,0,0.9,0.1,1.3c0,0.5-0.1,2.2-0.1,2.7h0.2c0.3,0,0,0.1-0.2,0.2
	c-0.1,0.3-0.2,0.6-0.2,0.9c0.1,0.2,0.2,0.3,0,0.5c0,0.1,0.1,0.3,0.2,0.4v0.5c0.1,0.1,0.3,0.1,0.2,0.2l0.7-0.1l1.5-0.6l1.3-0.1
	l-0.1,1.3l-0.7,0.5l-0.7,0.1l-0.6,0.6l-1.2,0.2H528c0,0.1,0.1,0.2,0.1,0.3s0,0,0.1-0.1c0.2,0.1,0.1,0.2,0,0.3s-0.1,0.5-0.2,0.7
	l0.1,0.2c0,0-0.1,0-0.1,0.1s0.6,0.8,0.1,1v0.2c0-0.1-0.1-0.1-0.1-0.1v0.2c0.1,0,0.7,0.3,0,0.1v0.4c0,0,0.2,0,0.2,0s0,0.1,0,0.1
	c-0.1,0.2,0,0.1,0.2,0.1c-0.1,0-0.3,0.1-0.3,0.2v0.7c0,0,0.1,0,0.1,0l-0.1,0.1c0,0.1-0.1,2.7-0.1,2.8c0,0.2,0,0.5,0,0.7l-0.3,0.4
	c-0.8,0.2-1.7,0.2-2.5,0.1l-1,0.1c0.1,0.1,0.1,0.2,0,0.2c0-0.1-0.1-0.1-0.1-0.2l0,0h-0.5c0.1,0.1-0.2,0,0,0h-0.6l-1.1,0.1v3.6
	l0.4,0.9l3.5-0.1c0.4,0.2,0.9,0.3,1.4,0.2c0.3,0,4.2-0.2,4.2-0.2l5.9,0.1l1.7,0.1l1-0.1l0.9,0.2l0.8-0.2c0.6,0.2,1.1,0.3,1.7,0.2
	c0.8,0,1.6-0.1,2.4-0.1c0.6,0,1-0.1,1.4-0.1c0.4,0,0.7,0,1.1-0.1c0.3,0,0.6-0.1,0.9-0.1c0.3,0,0.5-0.1,0.8-0.1
	c0.3,0,0.8-0.1,0.8-0.1c0.5-0.2,1-0.3,1.5-0.4c0.3,0,0.6,0,0.9-0.1c0.3-0.1,0.7-0.3,1-0.5l0.7-0.3h0.1l0,0c0-0.1,0.1-0.1,0.3,0
	l0.6-0.1l2-1c0.1-0.1,0.1-0.3,0.1-0.4l1.1-0.3c-0.1,0.1-0.2,0.1-0.3,0.2l1.4-0.7c0-0.1,0.1-0.1,0.2-0.2l0,0l0.2-0.1l0.7-0.8l1.1-0.4
	l0.8-0.9l1-0.6l0.6-1.1c0.9-0.7,1.5-1.5,1.9-2.6c0.6-0.6,1.2-1.4,1.7-2.1c0.5-0.8,1.1-1.5,1.5-2.2c0.6-1.3,0.9-2.7,0.9-4.1
	c0.1-0.5,0.2-1,0.2-1.4c-0.2,0.1-0.3,0.2-0.3-0.2l0.3-0.1c0-0.2,0.1-0.8,0.1-0.8c-0.1-0.1-0.1-0.2-0.1-0.3h0.2
	c0.1-0.5,0.1-1,0.2-1.4c-0.3,0.2-0.5,0.4-0.8,0.6c0.4-0.5,0.2-0.9,0.8-1.1l0.1,0.3c0-0.1,0-0.2,0-0.2L571.4,117.2z M528,133.2
	c0,0,0.1-0.1,0.1-0.1l0.1,0.2C528.2,133.2,528,133.2,528,133.2L528,133.2z M536.8,121.7c-0.1-0.1-0.1-0.2-0.1-0.3
	C537.3,121.4,536.8,121.5,536.8,121.7z M560.8,120.1c-0.1,1.1-0.2,2.2-0.1,3.2c-0.1,0.2-0.1,0.4-0.2,0.6c-0.1,0.5-0.3,0.9-0.4,1.4
	c-0.5,1.8-1.4,3.5-2.6,4.9c-0.2,0.1-0.3,0.2-0.5,0.3c-0.3,0.3-0.5,0.6-0.7,1l-0.1,0.2c-0.8,0.9-2.7,2.9-2.9,3.1l-5,2.1l-0.5,0.1
	c0,0,0,0,0,0.1s-0.1,0-0.1,0s-2.3,0.4-3.9,0.5c0,0.1,0,0.2,0,0.2s-0.1-0.1-0.2-0.2l-1.3,0.1c-0.2,0.1-0.3,0.3-0.3,0.5l-0.6-0.2
	c0.1,0,0.3-0.1,0.2-0.3h-1c0,0.1-0.1,0.3-0.3,0.2c0-0.1,0-0.1,0-0.2c-0.8,0-1.6-0.1-2.4-0.2l-0.6-0.3c0-0.3-0.1-0.9-0.2-1.7
	c0.1-0.2,0.2-0.4,0.2-0.7c0-0.6-0.1-1.3-0.2-1.9c0-0.8,0.1-1.6,0.2-2.4c0-0.9-0.3-1.8-0.2-2.8c0,0,0-0.1,0-0.1c0-0.2,0-0.6,0-0.9
	c-0.1,0-0.2,0-0.1-0.1h0.1c0-0.3,0-0.5,0-0.8c0,0,0,0.1-0.2,0.1h-0.1c0,0,0.3,0,0.3-0.4l-0.4,0.2c0.3-0.2,0.2-0.3,0.4-0.4
	c0,0,0.1-2.4,0.1-2.9c-0.1-0.1-0.3-0.2-0.4-0.2c0.3-0.2,0.3-0.1,0.4,0.1l0,0v-0.9c0,0-0.1,0-0.1-0.1h0.1v-1.1c0,0,0-0.1,0-0.2
	s-0.2,0-0.2-0.1l0.2,0.1c0-0.1,0.1-0.2,0.1-0.3c-0.1-0.2-0.4-0.4-0.3-0.5c0.1,0,0.3-0.1,0.4-0.2l-0.3-0.4c0.1,0.1,0.2,0.2,0.4,0.2
	c0-0.2,0-0.4,0-0.6l0,0c0,0-0.1,0.1-0.1,0.1c0-0.1-0.1-0.3,0-0.4s-0.1-0.3-0.1-0.4V116c0,0-0.1-0.1-0.1-0.2l0.1-0.1v-0.3
	c-0.1,0.1-0.1,0.1-0.1,0.2c-0.1-0.2,0-0.2,0.1-0.3v-0.6c0,0.1-0.1,0.1,0,0.2c-0.1-0.1,0-0.2,0-0.3v-1.8c0-1,0-2,0-3l0,0
	c0.1-0.6,0.2-1.2,0.2-1.9c-0.2-0.5,0-1.1-0.2-1.6l-0.1,0.2c0-0.2-0.2-0.4,0-0.6c0,0,0.1,0.1,0.1,0.2c0.1,0,0.2,0,0.3-0.1
	c0-0.1,0-0.3-0.1-0.4s-0.2,0-0.2-0.1l0.1-0.1c-0.1-0.4-0.1-0.7-0.2-1.1c0-1.1,0.1-2.2,0.2-3.3c0.1-0.2,0.1-0.4,0.2-0.6
	c0.1-0.6,0.1-0.7,0.6-1c0.2-0.1,0.3-0.2,0.4-0.3c0.2,0,0.3,0,0.5,0c0.1,0,0.1-0.1,0.2-0.1c0.3-0.1,0.5-0.2,0.8-0.2
	c0.1,0,0.8,0,1.2,0c0.5,0,0.9,0.1,1.4,0.2c0.5,0.1,1.1,0.2,1.7,0.2c1.4,0,2.7,0.1,4,0.5c0.5,0.2,1,0.2,1.5,0.2c0.1,0,0.2,0,0.3,0.1
	c0.2,0.1,0.5,0.1,0.7,0.1l1.3,0.4l1.2,0.7c0.4,0.4,0.8,0.7,1.3,0.9c0.3,0.2,0.7,0.4,0.9,0.6c0.1,0.1,0.1,0.3,0.2,0.4
	c0.2,0.3,0.5,0.5,0.8,0.8c0.2,0.2,0.3,0.4,0.5,0.5c0.1,0,0.1,0.1,0.2,0.1c1.3,1.3,2.1,3,2.4,4.8l0.2,1.4l0.4,0.8l-0.1,1.1l0.3,1.4
	l0.1,1.6c0.3,1,0.4,2.1,0.4,3.2C561.1,119.1,561,119.6,560.8,120.1L560.8,120.1z M569.9,111.7c0.5-0.2,0,0.2,0.2,0.5
	C570.1,112,570,111.9,569.9,111.7L569.9,111.7z M571,120.1c0,0.2,0,0.2-0.2,0.3h-0.1L571,120.1z"/>
<path class="st0" d="M321,98.7h-0.9c-0.1,0.2,0.2,0.6,0,0.6c0-0.2,0-0.4-0.1-0.5h-0.2c0,0.2-0.1,0.3-0.2,0.4v-0.4c0,0-0.6,0-0.6,0
	c0.1,0.3,0.1,0.6,0.3,0.8c-0.2-0.3-0.4-0.2-0.5-0.7l0.1-0.2c0,0-0.2,0-0.3,0s-0.1,0.2-0.2,0l-1.9,0v0.4l0,0v-0.3h-0.2
	c-0.1,0.2-0.1,0.4-0.2,0.1c0,0,0,0,0.1,0l-0.1-0.1h-0.8c-0.1,0.8-0.8,0-0.8,0.9c-0.2-0.4,0-0.2,0.2-0.7l-0.2-0.3h-0.2L314,99
	c0-0.1,0-0.2,0-0.2h-0.3c0,0.2,0.1,0.4,0,0.5l-0.3-0.5h-0.1c-0.1,0.1-0.3,0.1-0.4,0h-0.4c0,0,0,0.4-0.1,0.4l0.1-0.4h-0.2
	c-0.2,0.1-0.4,0.4-0.6,0.3c0-0.1,0-0.2-0.1-0.3h-0.1l-0.2,0.2c0.1,0,0.1-0.1,0.1-0.2h-0.1c-0.2,0-0.5,0-0.6,0.1
	c-0.2,0.2-0.1,0.4,0,0.7c0.1,0.2,0.1,0.5,0.1,0.7c0,0.6,0.1,1.7,0.5,1.7c0.2,0,0.6,0,1,0.1c0.9,0,1.9,0.1,2.8,0.3
	c0,0.4,0.1,1.2,0.1,1.2c-0.1,0.6-0.4,1.1-0.6,1.7s-0.3,2.1-0.4,2.7c-0.4,0.4-0.6,0.9-0.7,1.4c-0.1,0.5-0.2,1-0.4,1.5
	c-0.1,0.3-0.7,2-0.8,2.5l-0.1,0.6l-0.8,2.3l-0.5,1.9l-0.9,1.8l-0.7,1.7c-0.2,0-0.3,0.1-0.3,0.2c-0.1,0.6-0.7,1.4-0.6,2.1l-0.9,2.2
	l-0.4-0.2c0-0.1,0-0.2-0.1-0.2c0-0.1,0-0.2,0-0.3c-0.2-0.8-0.5-1.6-0.9-2.3c-0.1-0.4-0.2-0.8-0.2-1.1c0.1-0.2,0.1-0.4,0-0.5
	c-0.2-0.5-0.4-0.9-0.6-1.3l-2.1-6.9l-0.1-0.8l-1.5-4.4l-0.1-1.2l-1-3.5c0.1-0.5,0.5-0.5,1-0.6c0.3-0.1,0.5-0.2,0.7-0.3
	c0,0,1.6,0.1,2.9,0c0.1-1.1,0.1-2.2-0.1-3.4l-4.6-0.2c-0.9,0.1-1.9,0.1-2.8,0l-0.7-0.8l-0.3-3c-0.2,0,0.1-0.5-0.3-0.8
	s0.2-0.7,0.2-0.7c0.1-0.2,0-1.9,0-2.2c0-1.9,0.2-3.8,0.5-5.6c0,0.1,0.1,0.1,0.2,0.1c-0.2-0.4,0.7-1.2,0.7-1.2v-0.3l4.4-4.5l-0.2-0.1
	c0.6,0.1,0.2-1.1,0.5-1c0.2-0.1,0.3,0.1,0.5,0.3l0.1-0.1c-0.1-0.3-0.7-0.5-0.1-0.5c0,0.1,0,0.2,0,0.2c0.1,0,0.2,0,0.3,0.1l3.9-3.7
	c0-0.5,0.5-0.8,0.6-0.6l0.6-0.4c0.4-0.3,1.2-1,1.2-1s-0.2-0.3,0.9-0.7c1-0.7,1.9-1.4,1.9-1.4l-0.1-0.2c-0.1,0.2-0.1-0.1-0.1-0.2
	l-2.4-2.4v0.1c-0.1,0.2-0.1,0-0.1-0.2l-0.3-0.3l-0.3,0.3c-0.2-0.4-1.4-0.6-1-1.4c-0.3,0.2-0.4-0.5-0.6-0.6l0.1-0.1
	c0,0-0.5-0.5-0.5-0.5c-0.3,0.1-0.4-0.1-0.4-0.3c0,0-1.4-1.5-1.4-1.5l0,0c0,0-0.3,0-0.4-0.1c-0.2,0-0.4-0.3-0.4-0.6l-0.3-0.3
	c0,0,0.1,0,0.1,0l-0.2-0.2c-0.1,0.1-0.6,0.1-0.4,0c0,0.1,0.1-0.1,0.2-0.1l-0.4-0.4v0.1c0,0-0.1,0-0.1,0V62c-0.1,0-0.1-0.1,0-0.1
	c-0.2-0.3-0.2-0.1-0.3,0c0.1-0.2,0-0.5-0.1-0.7l-0.4-0.4c-0.1-0.1-0.3-0.2-0.4,0.1c0.2-0.5,0-0.3,0-0.4l-0.7-0.7
	c-0.1,0.1-0.3,0.1-0.5,0.1c0-0.2,0-0.4,0-0.6l-0.5-0.3c0,0.1,0,0.2,0,0.3c-0.1,0,0-0.2,0-0.3c0-0.1-0.1-0.2-0.1-0.3
	c-0.1-0.1-0.3-0.2-0.4-0.2c-0.1-0.1,0-0.2,0.1-0.2l-0.2-0.2h-0.3c0,0,0-0.1,0-0.1c0.1,0,0.2,0,0.2,0.1l-2.6-2.6c0,0-0.1,0.2-0.1,0.3
	c-0.3-0.2-0.2-0.4,0-0.4l-0.9-0.8l-1.2-1.8l-1,1.5l0.1,0.2l-0.2-0.2l-1.1,1.1c0,0-1,0.8-1.4,1.2s-0.8,0.9-1.2,1.4
	c-0.8,0.6-1.4,1.4-2,2.2l-3.4,3.3l0.2,0.1l-0.2,0.2c0.1,0.3,0.3,0.4,0.2,0.7c-0.1,0.3-0.2,0.6-0.4,0.8l-0.4-0.8l-0.1,0.2
	c-0.1,0,0-0.2-0.1-0.3l-3.6,3.5c-0.2,0.3-0.4,0.5-0.6,0.8c-0.6,0.3-0.3,0.2-0.9,0.8c-0.3,0.3-0.6,0.7-0.9,1l-0.5,0.6l0.9,0.7
	c0.4,0.3,0.7,0.6,1,0.9c0,0,0.5,0.2,0.5,0.5c0.1,0.1,0.6,0.2,0.6,0.2c0.5,0.4,1,0.8,1.5,1.1c0.1,0.1,0.7,0.7,0.9,0.8l1.7,1.4
	c0-0.1,0.1-0.1,0.2,0l-0.1,0.1l1.2,1c0.1-0.2,0.1-0.5,0.2-0.6c0,0.4,0.1,0.5,0,0.8l2.6,2.6c0.2,0.1,0.4,0.2,0.7-0.1
	c-0.1,0.4-0.2,0.3-0.5,0.3l0.8,0.8c0,0,0.1,0,0.1,0v0.1l1,1.1c0,0,0.1,0,0.1,0h-0.1l1.6,1.7l0.2,1c0.2,0.3,0.3,0.7,0.4,1
	c0.3,1.9,0.4,2.1,0.4,2.1c0.1,0.6,0.1,1.2,0.1,1.7l0.2,3.1l-0.2,4.7l-0.2,0.6h-1c-0.5,0-4.4,0.1-4.4,0.1v0.2l-0.4,0.2h-0.2l0.2,2.9
	h0.1c0.1,0.1,1.9,0.1,1.9,0.1l0,0.1c0.1,0.1,0.4,0.1,0.5,0h0.2c1.6,0,2.1,2.2,2.8,5.2l0.1,0.3c0,0.1,0,0.2-0.1,0.4
	c-0.2,0.6-0.4,1.2-0.5,1.9c0,0.1,0,0.1,0,0.1c-0.5,1.2-1.8,3.7-1.9,4.3c0,0.1,0,0.2,0.1,0.3l-0.1,0.3c0,0-1.6,2.5-1.7,2.7
	c-0.1,0.2-0.1,0.5-0.2,0.7l-0.8,1.8l-0.1,0.6l-1.3,2.4c0,0.1-0.8,1.7-1.4,2.8c0,0-0.3,0-0.4,0c-0.6-1.5-1-2.8-1.3-3.8
	c0.1-0.1,0.1-0.2,0.1-0.3c-0.2-0.4-0.4-0.9-0.6-1.3l-1.5-4.6l-0.5-1.7c0-0.9-0.3-1.7-0.7-2.4c-0.6-1.2-0.9-2.5-1-3.9l-0.2-1.2
	l-0.3-0.8c-0.1-0.3-0.1-0.7-0.2-1c-0.1-0.6-0.2-1.3-0.5-1.8l0-0.8c1.3-0.3,2.5-0.4,3.8-0.4h0.2v-0.2c0,0,0.1-0.7,0.1-1.2
	c0-0.7-0.1-2-0.1-2v-0.2h-0.6c0,0.2,0.1,0.3,0,0.3l-0.2-0.3h-1.1c0,0,0,0.4-0.1,0.4c0-0.1,0-0.3,0-0.4h-0.2
	c-0.3,0.1-0.5,0.5-0.7,0.4c0-0.1-0.1-0.2-0.1-0.3h-0.1l-0.2,0.2c0-0.1,0-0.1,0-0.2l-0.7,0.1l-1.1-0.1c-0.3,0-5.5,0.1-7.1,0.1
	l-1.1,0.2l-1.6,0l-2.2,0.1V99c-0.1,1.1,0,2.2,0.3,3.2v0.1h2.4c0.3,0.3,0.8,0.3,1.2,0.4c0.1,0,0.2,0,0.3,0c0.2,0.1,0.3,0.2,0.4,0.4
	c0,0.1,0.3,0.9,0.3,0.9s0,0.3,0,0.5s0.1,0,0.2-0.1c-0.1,0.1-0.1,0.2-0.2,0.3c0,0.1,0.1,0.3,0.1,0.4c0.1,0.3,0.3,0.6,0.5,0.9
	c0.2,0.8,0.8,2.6,0.8,2.6c0.1,0.7,1.3,4.1,1.5,4.8l0.6,2.3l0.4,0.8l0.1,0.7l0.4,0.6c0,0,2.1,7.8,2.6,9.1l0.2-0.1
	c0.2-0.1,0,0.1-0.2,0.2c0.2,0.6,0.5,1.1,0.7,1.7c0,0.1,0.2,0.3,0.2,0.3h0.1c0,0.2,0.5,0.5,0.1,0.8l2.1,6.8c0.1-0.1,0.2-0.1,0.2,0
	c-0.1,0-0.1,0.1-0.2,0.1l0.2,0.7c0,0,1.1,0.1,1.5,0.1c0.5,0,0.9-0.1,1.4-0.2l0.9-1.5c0,0,2.8-6,3.1-6.6c0.1-0.1,0.1-0.2,0-0.3v-0.1
	c-0.1-0.1,0.1-0.8,0-0.9c-0.3-0.5-0.5-1-0.5-1.5l0.1-0.9c0.4,0.1,0.8,0.8,0.8,0.8l0.7,0.6c0.3-0.3,0.5-0.7,0.7-1.1
	c0.2-0.4,0.4-0.9,0.5-1.4l1.2-2.7c0,0,0.7-2,1.7-4.2c0.6-1.4,1.5-3,2-3.9c0.1,0.1,0.2,0.2,0.3,0.3l0.1,0.4c0,0.4,0.1,0.8,0.2,1.2
	c0,0.1,0.1,0.2,0.2,0.2l0,0.2c0,0.4,0,0.9,0.2,1.3c0.2,0.6,0.4,1.2,0.7,1.8c0,0.1,0.1,0.1,0.2,0.2l0.2,0.6c0.1,0.3,0.1,0.6,0.2,0.9
	c0.2,0.6,0.4,1.2,0.7,1.8c0,0.7,0.1,1.4,0.4,2.1c0.4,1.3,0.9,2.6,1.5,3.9l0.5,1.8c0.5,1,0.9,2.1,1.1,3.3c0.2,0.7,0.7,1.3,0.9,2.1
	c0,0.1,0.1,0.2,0.2,0.2l0.7,2l0.8,0.2l1.9-0.1l0.4-0.9c0-0.1-0.3-0.2-0.3-0.3h0.4v-0.1l-0.3-0.1c0-0.4,0.8-0.6,0.5-1
	c0.1,0,0.1,0,0.2,0v-0.1c-0.1-0.1,0.1-0.4,0.2-0.5l0.7-1.9l-0.4-0.1c0,0,0.1-0.3,0.2-0.3s0.2,0.1,0.3,0l0-0.1c0-0.1-0.2-0.2-0.3-0.3
	l0-0.1c0-0.1,0.2,0.2,0.4,0.3v-0.1c-0.1-0.1-0.3-0.3-0.1-0.3c0,0.1,0,0.1,0.1,0.2l0.1-0.2l-0.3-0.1c0.2-0.3,0.4-0.6,0.6-0.9l0.5-1.4
	c-0.8-0.5,0.5-0.5,0.2-1c0,0,0.1,0,0.1,0c0-0.1,0-0.3,0.1-0.3l1.3-3.6c0-0.2-0.3-0.5-0.2-0.5s0.2,0,0.4,0.1v-0.1
	c-0.2-0.1-0.5-0.2-0.2-0.2c0,0,0,0.1,0.1,0.1h0.1l1-2.8c-0.1-0.1-0.1-0.2-0.1-0.2s0.1,0.1,0.2,0.1l1.4-3.4c0,0,0-0.3,0.1-0.6H314
	c-0.2-0.1,0-0.1,0.2-0.1c0.2-0.6,0.4-1.1,0.8-1.6l0.1-0.2c0-0.1,0-0.1,0-0.2l-0.3-0.2l-0.7-0.1l-0.1-0.7c0.4-0.2,0.9-0.2,1.3-0.2
	c0.1,0,0.2,0,0.3,0c0,0,0.1-0.2,0.1-0.2c-0.2-0.2,0.1-0.2,0.1-0.2l1.6-3.5c0-0.1,0-0.2,0.1-0.3c0,0,0,0,0,0c0-0.1,0-0.2-0.1-0.2
	c0-0.1,0.1,0,0.2,0c0-0.1,0-0.2,0-0.3c0,0,0,0.1,0,0.1s0.2-0.5,0.2-0.7l-0.1-0.1c-0.1,0-0.3-0.1-0.4-0.1c0.1,0,0.2,0,0.3,0l0.1,0.1
	l0.1,0.1c0.3-1,0.7-1.9,1.2-2.8c0-0.1,0.1-0.1,0-0.2c0,0-0.2-0.1-0.3-0.2c0.1,0,0.2,0.1,0.2,0.1c0.2-0.2,0.5-0.5,0.7-0.8
	c0.2-0.5,0.4-0.9,0.7-1.3c0.3-0.3,0.5-0.6,0.8-0.8l2.6-0.3h1.3c0.4,0,0.6-0.3,0.8-0.8c0.1-0.4,0.1-0.9,0.1-1.3l0.1-1.5h-4.1
	C321.9,98.8,321.4,98.8,321,98.7z M313.8,99.5c0-0.5,0.1,0,0.2,0C314,99.5,313.9,99.5,313.8,99.5L313.8,99.5z M308,71.6
	c0.2-0.2,0.1,0,0,0.3l-0.1-0.2L308,71.6z M282,73.1c0-0.1,0-0.2,0.1-0.2L282,73.1z M282.5,72.6C282.5,72.6,282.4,72.5,282.5,72.6
	l0.1-0.1L282.5,72.6z M283.9,71.3c0-0.1,0-0.1,0-0.2l0.4-0.1L283.9,71.3z M282.6,99.3c-0.1,0-0.2,0.1-0.3,0.1
	C282.3,98.8,282.6,99.2,282.6,99.3L282.6,99.3z M270.8,103.9h-0.1l0.2-0.1L270.8,103.9z M280.8,135.2c0.1-0.1,0.1-0.2,0-0.3
	c0.2,0,0.4,0,0.4,0.1C281.1,135,281,135.2,280.8,135.2L280.8,135.2z M303.1,61.2c0,0.1,0,0.2,0.1,0.3l-0.3-0.1
	C303,61.4,303,61.3,303.1,61.2L303.1,61.2z M302.4,60.5h-0.2l0.2-0.2L302.4,60.5z M301.9,60h0.2l-0.5,0.2L301.9,60z M299.6,57.6
	L299.6,57.6L299.6,57.6l-0.1,0.4C299.4,57.8,299.5,57.7,299.6,57.6L299.6,57.6z M298.7,57.1h0.2c0.1-0.1,0.2-0.2,0.3,0h-0.3
	c-0.1,0.1-0.2,0.3-0.3,0.4C298.7,57.4,298.7,57.3,298.7,57.1L298.7,57.1z M297.1,55.8L297.1,55.8c0.4,0.2,0.2,0,0.1,0.2
	C297.1,55.9,297.1,55.8,297.1,55.8C297,56,296.9,55.7,297.1,55.8L297.1,55.8z M294.6,54.8h-0.3v-0.1L294.6,54.8z M286.3,77.3
	c-0.1-0.1-0.1-0.2,0-0.3l0.1-0.1L286.3,77.3z M286.9,71.3c0,0,0.1-0.2,0.2-0.1S287,71.3,286.9,71.3L286.9,71.3z M288.9,73.3
	C288.9,73.3,288.9,73.3,288.9,73.3C288.8,73.4,288.7,73.2,288.9,73.3L288.9,73.3C289,73.3,288.9,73.2,288.9,73.3L288.9,73.3z
	 M289.1,73.7c0.1,0,0-0.1,0-0.2h0.2C289.2,73.7,289.2,73.7,289.1,73.7L289.1,73.7z M290.2,80.8c0.1,0.1,0.2,0.1,0.3,0.2
	C290,81.5,290.4,80.9,290.2,80.8L290.2,80.8z M290.4,75.3c0.1,0,0-0.2,0.2-0.2c0,0.2,0.1,0.2,0.2,0.3
	C290.6,75.3,290.5,75.3,290.4,75.3L290.4,75.3z M290,74.1L290,74.1c0,0.1-0.1,0.2-0.1,0.2s0-0.2,0-0.2L290,74.1L290,74.1l-3.4-3.5
	c-0.3-0.5-0.2-0.5-0.1-1c0-0.2,0.1-0.4,0.1-0.5l0.2-0.2c0.1-0.1,0.2-0.2,0.1-0.3l0.3-0.1l0.2-0.2c0,0-0.1-0.1-0.1-0.1
	s0.1-0.2-0.1-0.2c0.5-0.1,0.9-0.4,1.2-0.8c0,0,0.6-0.6,0.9-0.8l0.4-0.4h-0.1c0.3,0,0-0.2,0.1-0.3h0.3l0.1-0.1c0-0.1-0.1-0.1-0.1-0.1
	c0.3-0.4,1-0.5,1.1-1c0,0,0.1,0,0.1,0c0,0,0.4-0.4,0.2-0.5c0.1,0,0.2,0,0.3,0l1.9-1.8l-0.2-0.1c0,0,0.3-0.3,0.3-0.3s0.1,0.1,0.2,0
	l0.1-0.1c0-0.1,0-0.2,0-0.3l0.2-0.2c0.1-0.1-0.1,0.3,0,0.4l0.2-0.2c0-0.2,0.1-0.4,0.2-0.4c-0.1,0.1-0.1,0.2-0.1,0.2l0.3-0.3
	c0,0-0.1-0.1-0.1-0.1l0.1-0.1c0.1,0,1.6,0.3,1.7,0.3c0.2,0.2,1.3,1.3,1.3,1.3c0.6-0.4,0.6,0.6,1.1,0.8c0,0-0.1,0-0.1,0
	c0.3,0.1,0.4,0.3,0.5,0.6l3.3,3c0,0,0-0.1,0-0.1c0,0.4,0.7,0.3,0.7,0.4s0,0.2-0.1,0.3l0.1,0.1c0.1-0.1,0.2-0.3,0.3,0
	c0,0-0.1,0-0.1,0c0,0,0,0.1,0,0.1l1.7,1.6c0,0.2,0,0.5,0,0.7c-0.1,0.2-0.1,0.4-0.2,0.6l-1,1c0,0.1,0,0.2-0.1,0.3c0-0.1,0-0.1,0-0.2
	s-1.7,2.2-1.7,2.2s-2.1,1.8-2.2,1.8l0.1,0.1c0.1,0.1-0.1,0-0.3,0l0,0l-1.5,1.5c-0.1,0.2-0.2,0.4-0.3,0.5l0.1,0.2
	c-0.1,0.1-0.2,0.2-0.4,0.5s-0.5,0.5-0.7,0.4c0,0.1-0.1,0.2-0.2,0.2c-0.1,0-0.2,0-0.4,0c-0.6,0-1.1,0-1.6-0.2c-0.1,0-0.2-0.1-0.3-0.1
	L290,74.1z M317.4,109.4c-0.1-0.1-0.2-0.3-0.2-0.4c0.1,0.1,0.3,0,0.4,0.2C317.4,109.2,317.3,109.3,317.4,109.4z M318.2,108.9
	c-0.1,0.1-0.2,0.1-0.3,0C318,108.9,318.1,108.9,318.2,108.9L318.2,108.9z M318,107.7c0.1,0.1,0.1,0,0.2,0l0.1,0.2
	C318.2,107.8,318,107.8,318,107.7L318,107.7z M318.4,107.5C318.4,107.5,318.4,107.4,318.4,107.5
	C318.2,107.4,318.4,107.3,318.4,107.5L318.4,107.5C318.5,107.7,318.6,107.5,318.4,107.5L318.4,107.5z M319.4,99.4l-0.1-0.2
	C319.4,99.2,319.4,99.2,319.4,99.4L319.4,99.4z"/>
<path class="st0" d="M387.8,117.7c0-0.1,0-0.4,0-0.4l-0.3-0.7c0.1-0.3,0.2-0.7,0.2-1c0-0.6-0.2-1.1-0.3-1.7
	c-0.1,0.1-0.2,0.2-0.3-0.1c0.1-0.1,0.1-0.2,0.2-0.4c0-0.1,0-0.1-0.1-0.2c-0.1,0-0.2,0.3-0.1,0.3c-0.1-0.2-0.1-0.5,0-0.6
	c-0.1-0.2-0.1-0.4-0.2-0.6c-0.1,0-0.2,0.1-0.1,0.4c-0.3-0.2,0.2-0.7-0.2-0.8h0.1c-0.1-0.3-1.2-3.1-1.2-3.1s-1.1-1.3-1.5-1.9
	c-0.8-1.1-1.6-2.1-2.6-3l0.1,0.2c0-0.1-0.5-0.2-0.6-0.5c0.1,0,0.1,0,0.2,0c-0.1-0.1-1.1-1-1.5-1.2s-1.4-0.9-1.4-1
	c-0.1-0.4-0.4-0.5-0.6-0.8l-0.1,0.1c0-0.1,0-0.1,0.1-0.1l-0.1,0c-0.2,0.1-0.4-0.1-0.5-0.3c-0.2-0.1-0.5-0.1-0.7-0.1
	c-0.1,0-0.1,0-0.2,0.1c-1.8-0.8-3.7-1.4-5.6-1.7c-0.8-0.2-1.7-0.3-2.6-0.2v0.1c-0.3,0-0.5,0-0.8,0.1c0,0.1,0,0.2-0.2,0.3l-0.5,0.1
	h-0.2l-0.4,0.1c-0.2,0.2-0.4,0.3-0.6,0.5c0.2,1,0.1,1.1,1.6,1.8c0.4,0,0.8,0,1.1,0.1h0.8c0.1,0,0.2,0.1,0.3,0.1l0.1-0.1v0.1l0.3,0.1
	c0,0,0.1,0,0.2-0.1h0.1c0,0.1,0,0.2,0.1,0.2l0.9,0.3c0.6,0.3,1.1,0.7,1.6,1c0,0,0.3,0.3,0.3,0.3c0.2,0.1,0.4,0.3,0.5,0.6l0.3,0.3
	c0.1,0,0.1,0.1,0.2,0.1c0,0,0,0,0,0.1c0.1,0.1,0.2,0.2,0.4,0.2c0,0,0.1,0,0.1-0.1c0,0.1,0,0.1-0.1,0.2l0,0c0.2,0.1,0.4,0.1,0.5,0.2
	c0.7,0.7,1.4,1.4,2,2.2c0.8,1.3,1.4,2.7,2,4.1c0.2,0.6,0.3,1.2,0.3,1.2c0.3,0.7,0.5,1.5,0.5,2.3l0.2,0.8c0,0.3-0.1,0.7,0,1
	c0.2,0.1,0.3,0.2,0.2,0.3s-0.1,0.1-0.2,0.1s0,0.1,0,0.1c0.2,0,0.3,0,0.1,0.2c0,0-0.1-0.1-0.1-0.1s0.1,1.3,0.1,1.7
	c-0.1,0.7-0.2,1.3-0.3,2c0.1,0.1,0.2,0.2,0.2,0.3c-0.1-0.1-0.1-0.1-0.2-0.1c-0.1,0.5-0.2,0.9-0.2,1.4l-0.2,1.1l-0.5,1.4
	c-0.1,0.3-0.2,0.6-0.3,0.9h0.1c0.2,0.1,0,0.1-0.2,0.1c-0.1,0.3-0.4,1-0.4,1c-0.3,0.3-0.5,0.6-0.7,1c0,0.1,0,0.3-0.1,0.4l0.3,0.2
	c-0.2,0.2,0,1-0.8,0.7c0.2,0.2-0.3,0.3-0.3,0.4l-0.2-0.1c-0.1,0.1-0.2,0.2-0.2,0.4h0.1c0.1,0.2,0,0.2-0.2,0.2
	c-0.1,0-0.2,0.1-0.3,0.1c0,0.1-0.1,0.3-0.1,0.4s-0.4,0.4-0.4,0.4s0,0.2,0,0.2s-0.2,0.3-0.4,0.2s-1.9,1.8-2.3,2.1l-0.7,0.3
	c0,0.1-0.1,0.3-0.1,0.4c0-0.1-0.1-0.2-0.1-0.3l-0.8,0.3c-0.3,0.2-0.7,0.3-1.1,0.4c-0.4,0-0.8-0.1-1.1-0.2c-0.5-0.1-0.8,0.3-1.2,0.3
	c-0.1,0-0.3,0.1-0.3,0.2h-0.3c-0.2,0-0.3,0.2-0.5,0.2l-0.2,0.5l-1.5,1.2c-0.2,0-0.3-0.1-0.4-0.2l0.2-0.9l0.5-0.6v-0.3l0.1-0.2
	c-0.2,0-0.5,0-0.7-0.1l-0.5,0.5l-0.1-0.4l0.1-0.2c-1.3-0.4-2.5-1.1-3.5-2l-1.9-1.9l-0.5-1.1l-0.5-0.6l-1.1-2.8c0,0-0.5-2.7-0.6-3.2
	c0-0.2-0.1-0.4-0.2-0.6c-0.1-0.7-0.4-3.6-0.4-3.8c0.1-0.7,0.2-1.4,0.2-2.2c0-0.1,0-0.2-0.1-0.2c0-0.4,0-0.8,0-1.2
	c0,0,0.3-1.6,0.3-1.7c0.2-0.6,0.5-1.1,0.8-1.7c0.3-0.9,0.4-1.8,0.4-2.7c0.2-0.8,0.5-1.6,1-2.3l2.7,2.9c0.8,0.4,1.5,1,2.1,1.7
	c0,0.1,0.1,0.1,0.1,0.2c0.2,0,0.3,0.1,0.5,0.2c-0.1,0-0.1,0.1-0.1,0.2c0.3,0.3,0.7,0.7,1,1c0.2,0.3,0.4,1,0.7,1.2
	c0.1,0,5.5,5.7,5.5,5.7l-3.3-9c-0.2-0.2-0.4-0.4-0.5-0.7c-0.1-0.2-0.1-0.3,0-0.5c0,0-0.3-0.3-0.3-0.5c0-0.7-0.5-1-0.6-1.7
	c0-0.1,0-0.3,0-0.4l-1-2.7c-0.1,0.1-0.3,0.2-0.4,0.3c-0.3,0.1,0.1-0.5,0.1-0.7c0.2-0.7-0.6-0.8-0.6-1.3l0.4,0.3
	c0.1-0.1-0.3-0.8-0.5-0.8c0.1,0,0.2,0,0.3,0l-0.2-0.7l-0.6-0.7c-0.1,0-0.1,0.1-0.1,0.1c0.1,0,0.3,0.3,0.4,0.4l0.5,0.6
	c-0.3,0.2-0.7-0.8-1.1-0.6c0-0.1-0.1-0.3,0-0.4c0-0.1,0-0.1-0.1-0.2c0.1,0.1,0.3,0,0.4-0.1c-0.1-0.1-0.8-1-0.8-1c0,0,0,0.1,0,0.1
	c0,0,0,0,0,0c-0.2-0.6-0.3,0.2-0.6-0.4c0.1-0.2,0.1-0.2,0.2-0.2l-0.2-0.3c0.2-0.2,0.2-0.5,0-0.7c-1-0.9-1.9-1.8-2.7-2.9
	c-0.3-0.5-0.6-1.1-1-1.5c-0.3-0.2-0.5-0.5-0.9-0.7c-0.9-1.2-1.9-2.3-3-3.4c-0.9-0.8-1.7-1.7-2.4-2.7c-0.3-0.4-0.6-0.8-1-1.2
	c0-0.3-0.1-0.5-0.4-0.5c0,0-0.1,0-0.1,0c-0.2,0-0.4-0.3-0.6-0.4c-0.2-0.1-0.4-0.2-0.6-0.3l0,0l-2.8-2.6c-0.1,0.1,0,0.7-0.3,0.3
	c0.1-0.2,0.1-0.3,0.1-0.5l-0.5-0.4c-0.2,0.1-0.4,0-0.6-0.1l0.2-0.2l-1.2-1.1c-0.1,0.2,0,1,0,1.1c-0.2-0.6-0.7-0.8-0.6-1.4l0.5,0.3
	c-0.2-0.3-0.4-0.5-0.7-0.7c-0.2,0-0.3-0.1-0.3-0.3l-2.1-1.9l-0.1,0.3l-0.1-0.1l0.2-0.3l-0.4-0.3c-0.2,0-0.4,0-0.5-0.3
	c0.1,0.1,0.1,0,0.2,0.1l-0.2-0.3c-0.6,0.3-1.5-1.3-2.1-0.7c-0.1-0.6,0.1-0.2,0.9-0.1l-0.2-0.4l-0.6-0.5l-0.5-0.1
	c0-0.1,0-0.2,0.1-0.2l-0.6-0.6c-0.1,0.2,0,0.6-0.3,0.3v-0.7c-0.8-0.3-1-0.8-1.5-1.3l-0.1-0.1c-0.2-0.1-0.4,0.3-0.7,0l0.4-0.1
	c-0.4-0.6-1.4-0.7-1.7-1.1c0.2,0,0-0.4,0-0.6l-0.9-0.4c0.2,0.1,0.3,0.1,0.5,0l-1.1-1c0,0.1,0.1,0.2,0.1,0.2
	c-0.9-0.6-0.9-0.8-0.9-0.8l-2.7-2.5c0,0.1,0,0.2-0.4-0.1c0-0.1-0.1-0.2-0.1-0.4l-0.4-0.4c0,0.2,0.1,0.3,0.2,0.4
	c-0.3-0.2-0.5-0.4-0.5-0.7l-0.9-0.8c0,0.1,0.1,0.2,0.3,0.4c-0.2-0.1-0.4-0.3-0.5-0.6l-5.5-5l-5.9-5.8c-0.6-0.6-1.3-1.2-2-1.7
	l0.3,0.4c-1-0.6-1-0.9-1-0.9c0.1,0,0.2,0.1,0.3,0.2c0.1-0.1,0.1-0.2,0.1-0.3l-0.3-0.3h-0.1v-0.1l-0.2-0.2c-0.1,0.1,0,0.3-0.3,0.1
	c0-0.2,0-0.3-0.1-0.5l-1.2-1.2c0,0,0,0.1-0.1,0.1c0-0.1-0.1-0.3-0.2-0.4l-0.1-0.1l-0.1,0.3c-0.7-1-1.5-1.9-2.4-2.8l-0.5-0.5
	c-0.1,0-0.2,0-0.3,0c0-0.1,0.1-0.1,0.2-0.1l-0.2-0.2c-0.3-0.1-0.6-0.4-0.7-0.7l-0.2-0.2c-0.2,0-1.5,0.2-1.7,0.2l-3.8,3.8
	c0,0.3,0,0.6,0.1,0.9l0.6,0.6c0,0,0-0.1,0-0.2c0.1,0.1,0.1,0.3,0.2,0.4l3.9,3.6c0.4,0.4,0.7,0.9,1,1.3c0.9,1.2,2.8,3.3,4.3,4
	c0.1,0.1,0.5,0.4,0.7,0.6c0.2,0.2,0.3,0.4,0.4,0.6c0.2,0.3,0.4,0.5,0.7,0.7c0.4,0.3,0.8,0.6,1.2,0.8l2.3,2.2v-0.1l0.3,0.2
	c0.1,0.1,0,0-0.1,0l2.1,2c0.5,0.6,1.2,1.2,1.8,1.8s1,1.4,1.8,1.6c0.1,0.1,0.2,0.2,0.3,0.3c0.3,0.1,0.5,0.3,0.8,0.7l0.7,0.7
	c1.1,1.4,2.3,2.7,3.7,3.8c0.6,0.5,2.3,1.8,2.5,2l3,2.8c0.4,0.1,0.7,0.2,0.8,0.3s0.1,0.3,0,0.3l0.2,0.2c0.1-0.2,0.2-0.3,0.4,0.2
	c-0.1,0-0.2-0.1-0.2,0c0.2,0.2,0.4,0.5,0.6,0.7c0.2,0.1,0.3,0.3,0.5,0.4l1.8,1.7c0.6,0.7,1.2,1.4,1.8,2.1c0.5,0.6,1,1,1.6,1.4
	l0.6,0.4l7.5,8.2l0.1-0.2c0.2-0.2,0.1,0.2,0.1,0.5l3.8,4.2c0.2-0.2,0.4-0.3,0.7-0.2c0.2-0.3,0.6-0.8,0.7-0.6
	c0.1,0.3,0.2,0.6,0.2,0.9l0.1,0.8l0.1,0.5c0,0.1,0,0.3,0,0.4c0.3-0.1,0.7,0.9,0.7,0.9l0.6,0.7c0.2,0,0.3,0.2,0.4,0.4l0.2,0.2
	c-0.9,0.5-1.6,1.1-2.1,2l-0.6,0.9l-0.6,0.4l-0.5,0.8L349,109c-0.5,0.7-0.9,1.5-1.2,2.3c-0.1,0.3-0.2,0.7-0.5,1.3l-0.4,1.5
	c0.1,0.1,0.3,0.2,0.4,0.3l-0.2,0.4c0-0.1-0.2-0.2-0.3-0.2c0,0,0,0,0,0c-0.1,0.2-0.2,0.3-0.2,0.5c0.1,0,0.1,0,0.2,0
	c-0.2,0.2,0.4,0.1,0.2,0.3c-0.1,0-0.2,0-0.4,0v1.1c-0.1,0.2-0.2,0.8-0.2,0.9c0,0.5,0,1,0.2,1.5c0,0.2,0,0.4,0,0.7
	c-0.1,0.4,0,0.8,0.1,1.2c0,0.3,0.1,0.6,0.1,0.9c0.1,0.4,0.2,1.5,0.2,1.5c0.2-0.1,0.4-0.2,0.4,0l-0.4,0.1l0.4,0.5c0,0,0,0,0.1-0.1
	h0.1l-0.2,0.1l0,0.2l0.4-0.2c-0.2,0.2-0.2,0.3-0.4,0.4v0.4l0.2,1.1c0,0.1,0.1,0.1,0.1,0.2c0.3,0.1,0.1,0.5,0.8,0.3
	c-0.3,0.2-0.2,0.1-0.6,0c0.1,0.2,0.1,0.4,0.2,0.7c0.1,0,0.2-0.1,0.2,0l-0.2,0.2c0.1,0.2,0.2,0.7,0.2,0.7s0.3-0.1,0.4,0l-0.3,0.1
	l0.1,0.2c0.2,0.1,0.5,0.1,0.5,0.3c-0.1,0-0.1,0.1-0.2,0.2l0.1,0.2l0.2,0.1c0,0-0.1,0-0.2,0c0.1,0.2,1.6,2.4,1.6,2.4
	c0.8,1,1.7,1.9,2.7,2.6l0.1,0.2c0.3,0.4,0.7,0.7,1.1,0.9c0.5,0.3,1,0.5,1.5,0.7c3.2,1.6,6.6,2.6,10.2,2.7c0.5,0.2,1,0.3,1.5,0.3
	c0.3,0,0.6-0.1,0.9-0.3c0.6-0.1,1.2-0.2,1.8-0.4c0.5-0.1,1-0.2,1.5-0.3c0.7,0,1.4-0.1,2.1-0.3c0-0.1,0-0.1-0.1-0.1s0.1,0,0.3,0.1
	c0.5-0.1,1-0.3,1.5-0.5c0.2-0.1,0.2-0.4,0.1-0.6c0.2,0,0.5-0.1,0.7-0.1c-0.1,0-0.2,0.2-0.2,0.4l0.4-0.2c0.2,0,0.4,0,0.4-0.1
	c0.4,0.1-0.1-0.4,0.3-0.4c0.1,0.1,0.1,0.2,0.1,0.3c0.3-0.1,0.6-0.3,0.9-0.5c0.1-0.1,0.2-0.2,0.2-0.3c0.4-0.2,0.7-0.4,1-0.7
	c0.2,0,0.4,0,0.5,0c0.4-0.1,0.5-0.4,0.9-0.7c0.6-0.4,1.1-0.9,1.4-1.6c0.6-0.6,1.2-1.3,1.7-2c0.3-0.2,0.6-0.6,0.8-1
	c0.1-0.3,0.2-0.6,0.3-1c0-0.1,0.3-0.9,0.4-0.9c0.1-0.1,0.1-0.2,0.1-0.3c-0.2,0-0.4,0-0.2-0.2h0.2l0.2-0.6c0-0.1,0-0.1,0-0.2h0.1
	c0.1-0.3,0.2-0.5,0.3-0.8c-0.2,0-0.5,0.1-0.6,0.1c0.4-0.2,0.4-0.4,0.7-0.4c0.4-1.2,0.7-2.4,0.9-3.6c-0.1-0.1-0.2-0.2-0.3-0.2
	c0.2-0.1,0.3-0.1,0.4,0.1c0.2-1,0.3-2,0.3-3.1c-0.1-0.1-0.1-0.2-0.1-0.3S387.7,117.8,387.8,117.7z M335.4,74.5
	c0.3-0.4,0.1,0.2,0.5,0.4C335.8,74.7,335.6,74.6,335.4,74.5z M343.2,81.3l-0.1-0.4C343.2,81.1,343.3,81.1,343.2,81.3L343.2,81.3z
	 M348.5,126.2c0,0.1,0.1,0.1,0.1,0.2C348.2,126.6,348.6,126.3,348.5,126.2L348.5,126.2z M386.1,125.6c-0.1,0.1-0.1,0.2-0.2,0.1
	l-0.1-0.1L386.1,125.6z M387.2,120.7c0-0.1,0-0.2,0-0.3C387.7,120.5,387.2,120.5,387.2,120.7L387.2,120.7z"/>
<path class="st0" d="M270.6,69.6c0.2-0.2,0.5-0.3,0.6-0.4c0.4-0.3,0.7-0.6,1-0.8s0.7-0.6,1-0.9s0.7-0.9,1.1-1.3
	c0.1-0.1,0.1-0.2,0.1-0.3l5.7-5.4c0.1-0.3,0.2-0.8,0.3-0.8s0.3,0,0.4,0.1l0.2-0.2c-0.1-0.2-0.4-0.3,0.1-0.4c0,0.1,0,0.1,0,0.2h0.2
	c0,0,4.5-4.3,4.9-4.8c-0.1-0.2,0-0.4,0.1-0.6c0,0.1-0.1,0.2,0,0.3s0.1-0.1,0.1-0.2s0.1,0.1,0.1,0.1l7-6.7c-0.1-0.1-0.1-0.2,0-0.2
	c-0.1-0.1-0.1-0.1-0.2-0.2c-0.2-0.2,0.7-0.1,0.7-0.1l1.1-1c0.1-0.3,0.3-0.6,0.7-0.6c0.3-0.3,0.9-0.9,0.9-0.9
	c0.2-0.3,0.4-0.6,0.6-0.9l-0.2-0.3c0.5-0.2,0.8-1.4,1.5-1.1c-0.1-0.3,0.5-0.4,0.7-0.7l0.2,0.1c0.2-0.1,0.4-0.4,0.5-0.6h-0.1
	c0-0.3,0.2-0.3,0.4-0.4c-0.1-0.2-0.1-0.3-0.1-0.5c-0.1-0.3,0-0.6,0.1-0.9c0,0,0.2,0.4,0.3,0.7c0.1,0.2,0.2,0.3,0.3,0.5l0.4-0.3
	c0.1-0.2,0.6-0.7,1-1.2c0.1-0.3,0.4-0.6,0.7-0.6l0.3-0.3c0,0.1,0,0.2,0,0.2l0.2-0.3c-0.1-0.1,0-0.6,0.1-0.4c-0.1,0,0,0.1,0.1,0.2
	l0.4-0.5c0,0-0.1-0.1-0.1-0.1s0.1-0.1,0.1-0.1c0.3-0.2,0.1-0.2,0-0.3c0.2,0,0.3,0,0.5,0l1.2-1.3v-0.2l0.1,0.1l0.4-0.5V35l0.1,0.1
	l5.4-5.9l5.1-4.3h0.2c0.3-0.1,0.6-0.2,0.9-0.2c0.2,0,0.4-0.1,0.5-0.1h0.2h0.5c0.1,0.1,0.3,0.2,0.3,0.2c0.3,0,0.7,0.1,1,0.2
	c0.5,0.3,0.7,0.9,1,1.3c0.1,0.2,0.1,0.4,0,0.6c0.2,0.2,0.6,0.9,0.6,1s0.2-0.1,0.3,0l-0.2,0.3c0,0.1,0.1,0.1,0.1,0.2
	c0.1,0,0.1-0.1,0.2-0.1c0.3,0.4,0.2,0.9,0.3,1.2c0,0,0,0.1,0,0.1c0,0.1,0.1,0.2,0.2,0.3c0,0-0.1,0.1-0.1,0.1c0,0.1,0.1,0.3,0.1,0.4
	s0.1,0.2,0.3,0.1c-0.1,0-0.2,0.1-0.2,0.2c0.1,0.2,0.1,0.5,0.1,0.7c0.5,2.4-0.4,4.9-2.3,6.5c0.2,0.2,0,0.3-0.1,0.4v6
	c0.1,0.1,0.2,0.2,0.2,0.3s-0.1,0.1-0.2,0.1v0.2c0.2,0,0.3,0,0.1,0.2l-0.1-0.1v3.8c0.1,0,0.2,0.1,0.2,0.2c-0.1,0-0.1-0.1-0.2-0.1v2.8
	l1.3-1c0-0.1-0.1-0.3-0.1-0.3l0.3,0.2l0.1-0.1l-0.1-0.1c0.2-0.2,0.5-0.4,0.8-0.4c0.2-0.1,6.1-5.6,8-7.8l-0.4-0.7l-0.3-0.9l0.1-1.2
	c0,0,0.9,0.4,1,0.7c0.2,0.4,0.4,0.7,0.6,1c0.6-0.7,2.6-3,2.6-3c1.1-1.3,5-6.2,6.4-8.2l-0.2-0.1c-0.2-0.1,0-0.1,0.3,0
	c0.6-0.8,1-1.5,1.4-2.2c0-0.1,0.1-0.2,0.1-0.3l-0.3-0.2c0.3-0.2,0.1-1,0.8-0.8c-0.2-0.2,0.3-0.3,0.3-0.5l0.2,0.1l0.2-0.4h-0.1
	c-0.1-0.2,0.2-0.4,0.3-0.4c0.2-0.5,0.5-1,0.5-1v-0.1c-3.5,0.1-6.9-0.9-9.8-2.8c0,0-0.1,0-0.2,0c0-0.1,0-0.1-0.1-0.2l-0.3-0.2
	c0,0.1,0.1,0.3,0.2,0.3c-0.2,0-0.4-0.2-0.4-0.4l-0.5-0.6c-0.1,0.1-0.1,0.2,0.1,0.4c-0.3,0.1-0.3-0.6-0.6-0.4l0.2-0.2L333,19
	c-0.1,0-0.2,0.1-0.2,0.2c0.4-0.4-0.2-0.1-0.2-0.4c0.1,0,0.1,0,0.2,0c-0.1,0-0.1-0.1-0.2-0.1c0-0.3-0.5-0.1-0.5-0.3c0,0,0.2,0,0.2,0
	s-0.3-0.3-0.5-0.4c0,0-0.5,0.1-0.6,0.2s0.3-0.4,0.3-0.5s-0.5-0.3-0.6-0.5l-0.6-0.5c-0.1,0-0.3,0-0.4-0.1c0.1,0,0.1,0,0.2-0.1
	c-0.9-0.8-1.5-1.5-2.3-2.4l0.5-1.3l-0.2,0.2c0,0,0-0.2,0-0.4s0-0.3,0.1-0.4s0.1,0.1,0,0.1s0.2-0.1,0.2-0.1l-2.5-2.7l0.3-0.4V8.9
	l0.2,0.1l0.3-0.6l0.1,0.1l0.1-0.3l0.1,0.1L327,8l0.2-0.1l0.2-0.3v0.2l0.3-0.4l0.1-0.3V6.9h0.4V6.7l0.3-0.1l-0.1-0.1l0.2-0.1l0.4-0.5
	l1.2-1.5l-1.6,1.5l-0.1,0.2l-0.4,0.3L326,8.5v0.1h-0.1l-0.5,0.5L323,7L320.9,7l-1.6-1.3l-1,0.5V5.6l-0.6-0.1l-1.8,1.8l0.6-3.2
	l-0.5,0.2c0-0.3,0-0.7-0.1-1c0-0.1,0-0.2,0-0.4L313.2,0c-0.3,0-0.6,0-0.9,0c0,0.1,0,0.3,0.1,0.4c0,0.2-0.3-0.3-0.3-0.3L309.2,3
	c0,0,0,0.1-0.1,0.3c-0.1,0-0.1,0-0.2,0l-0.3,0.3c0.1,0,0.2,0,0.3-0.2c-0.1,0.2-0.3,0.3-0.5,0.3l-0.6,0.6c0.1,0.1,0.2,0.1,0.4-0.2
	c-0.1,0.4-0.8,0.2-0.7,0.7l-0.1-0.2l-1,1c0,0.1-0.1,0.3-0.2,0.3c0,0,0-0.1,0-0.1l-0.4,0.4c0,0.1-0.1,0.3-0.2,0.3c0,0,0-0.1,0-0.1
	s-0.8,0.8-0.8,0.8c0.1,0.1,0.1,0.1,0.1,0.2c-0.2,0-0.5,0.2-0.5,0.2c-0.1,0.3-0.2,0.5-0.3,0.7l0.7,0.7c0.2-0.1,0.4-0.1,0.5,0
	c-0.1,0-0.2,0-0.3,0.1s0.1,0.1,0.2,0.1c0,0-0.1,0.1-0.1,0.1l2.9,2.9l2.6-0.5c-0.1-0.2-0.1-0.4-0.1-0.6l1.2,0.4l0.5,0.5
	c-0.4,0.2-0.7,0.2-1.1,0.1l-1.2,1.2c0,0.3,0,0.5,0,0.8c0.1,0.1,0.2,0.2,0.2,0.3c0.1,0.1,0.2,0.1,0.3,0.1c-0.1,0-0.1,0.1-0.1,0.2
	c0,0,0.4,0.3,0.3,0.4c0.1,0.1,0.2,0.2,0.3,0.2c0.5-0.4,0.5,0,0.5,0l0.3-0.1c0.3-0.1,0.1,0.2,0,0.5c0,0.2-0.1,0.4-0.2,0.6l0.3,0.4
	l-2.9,3.4l0.1,0.1c-0.3,0.2-0.5,1.1-1,0.9l-7.5,8.6c0.1,0,0.2,0.1,0.3,0.2c-0.1-0.1-0.4,0-0.5,0.1l-3.3,3.8c-0.1,0-0.3,0.1-0.3,0.3
	c-0.1,0.3-0.2,0.2-0.5,0.3c0,0-0.3,0.2-0.4,0.2c-0.5-0.2-0.9-0.4-1.3-0.7l-0.3-0.1c0.1,0,0.2,0,0.2,0l-2.2-2.5c0,0.1-0.1,0.1-0.3,0
	c0-0.1,0-0.2,0-0.3l-0.2-0.2c-0.1,0.1,0,0.3,0.1,0.3c-0.2-0.1-0.3-0.3-0.2-0.5l-0.4-0.5c-0.1,0.1-0.1,0.2,0.1,0.3
	c-0.2,0-0.2-0.3-0.2-0.5l-5.4-6.1c-0.2-0.2-1.3-1.2-1.4-1.3l0.1,0.3c0-0.1-0.5-0.2-0.5-0.6c0,0,0.1,0,0.2,0.1
	c0.1-0.1,0.1-0.2,0.1-0.3l-0.3-0.3c-0.1,0-0.1,0.3-0.3,0.1c0.1-0.1,0.1-0.3,0.1-0.4l-0.6-0.7c0,0,0,0.1-0.1,0.1c0-0.1,0-0.3-0.1-0.4
	l-0.2,0.2c-0.4-0.6-0.5-0.9-0.7-1.3l-0.6-0.7H281c0-0.1,0-0.2,0.1-0.2l-1.5-1.8l1.9-2.3c0-0.1,0.1-0.8,0.1-1l-2.1-2.1l2.2,0.5
	c0.4-0.6,0.9-0.1,0.9-0.1c0.1-0.2,0.3-0.2,0.6-0.2c0.2,0,0.4,0.1,0.5,0.2l2.5-2.5c0.1-0.1,0.1-0.3,0-0.4c0,0,0.1,0,0.1,0
	c-0.3-0.4,0.4-0.8,0.2-0.9h0.3c-0.3-0.3-0.4-0.4-0.4-0.5l-2.5-2.4c0,0.1-0.1,0.1-0.1,0l0-0.1L283.2,4c-0.1,0.2-0.1,0.4-0.2,0.5
	c0-0.3-0.1-0.4,0-0.7l-1.7-1.8c-0.2-0.1-0.4-0.5-0.8-0.1c0.1-0.4,0.1-0.2,0.5-0.3l-0.6-0.7c0,0.1-0.1,0.1-0.2,0l0.1-0.1l-0.8,0.1
	l-0.2-0.5l-0.1-0.3c-0.2,0.2-0.7,0.2-0.7,0.2L277.2,1l-2.5,2.5l0.7,3.8l-1.6-1.5l-0.6,0.2l-0.5-0.3h-0.5l-1.9,1.5l-2.1-0.1L266,9
	l-1.5-1.5l-0.7-0.6l-1.5-1.5l-1.1-1l0.9,1l0.2,0.2l0.5,0.8l0.3,0.1L263,6.5l0.4,0.2l-0.1,0.2h0.2l0,0.2h0.2l0.5,0.7l0.1-0.3v0.4
	l0.3-0.1v0.5l0.2,0.1l0.1,0.4h0.2v0.2l0.2-0.1v0.2l0.3,0.4l-1.3,1.4v0.3l-0.5,0.2l-0.6,0.7l-0.1,0.4l0.6,1.6c-0.7,0.7-2,2.1-2,2.1
	s0.1,0.2,0,0.3s-0.4,0.1-0.5,0.1s-0.1,0.3-0.2,0.4c-0.3,0.3-0.8,0.5-1.2,0.9c-1,1-2.1,1.9-3.4,2.7c0.5,0.5,1,1,1.3,1.6
	c0.1,0.2-1.5-0.3-1.5-0.3c-0.4-0.2-0.8-0.4-1.2-0.6l-0.5,0.2c0,0.1,0.2,0.2,0,0.1s-0.1,0-0.1-0.1c-2.1,1.1-4.4,1.8-6.7,1.9
	c0,0.1,0.1,0.3,0,0.2v-0.2c-0.1,0-0.7,0-0.8,0c0,0.1,0,0.2-0.1,0.2c0-0.1-0.1-0.2-0.1-0.2c-0.3,0-0.5,0-0.5,0
	c1.2,2.4,2.6,4.8,4.2,6.9c0.2,0.1,0.3,0.1,0.3,0.2s0.2,0.2,0.1,0.2l0.1,0.1c0.2-0.1,0.2,0,0.3,0.1c-0.2-0.1-0.2,0-0.2,0
	c0.8,1.1,1.8,2.4,3,3.9c0.1,0,0.3,0,0.3,0.1c-0.1,0-0.2,0-0.2,0s1.9,2.3,2.9,3.5c0.5,0.6,1,1.2,1.5,1.7l0.1-0.1c0.2-0.2,0.1,0,0,0.2
	c0.8,0.9,1.6,1.8,2.4,2.6c0,0,0.5,0,0.9,1c0.1,0,0.1,0.1,0.2,0.2c1,1,4.7,4.5,4.8,4.6l0.1-0.1l-0.1,0.1l2.3,2c0-0.1,0.1-0.2,0.1-0.2
	c0,0.1,0,0.2,0,0.3l0.8,0.6v-5.4c-0.1-0.1-0.3-0.2-0.5-0.2l0.1-0.3c0.1,0.1,0.2,0.2,0.3,0.1v-0.4c0,0-0.4,0-0.3-0.2h0.3v-6.2
	c-0.2,0-0.5,0.1-0.5,0c0.2,0,0.3,0,0.5-0.1v-0.1c-0.1,0-0.2-0.1-0.4-0.1h0.4c0,0-0.4-0.4-0.1-0.5h0.1v-0.3l-0.2-0.2
	c-0.1-0.1-0.3-0.3-0.4-0.4l-0.1-0.2c-0.1,0.1-0.2,0.2-0.3,0.2l0.2-0.2c-0.2-0.2-0.3-0.4-0.5-0.6c-0.1,0.1-0.2,0.1-0.2,0l0.2,0
	l-0.2-0.3c-0.1,0-0.2-0.1-0.2-0.2s0.1,0,0.1-0.1c-0.7-1.4-1-3-0.7-4.5c0.2-1.2,0.6-2.3,1.1-3.4c0.1-0.3,0.3-0.6,0.3-0.9l-0.2,0.1
	c0.1,0-0.1-0.4,0.2-0.4c0,0,0,0.1,0,0.1c0.1,0,0.2,0.1,0.3,0.1c0,0,0.1-0.2,0.1-0.2s-0.3-0.1-0.2-0.2c0.1,0,0.2,0.1,0.3,0.1l0.3-0.4
	c0,0-0.1-0.1-0.1-0.1h0.2v0l-0.2-0.1c0.2-0.1,0.4-0.2,0.6-0.3c0.1-0.1,0.3-0.3,0.4-0.4c0.2-0.4,0.6-0.8,1-1.1
	c0.1-0.4,0.6-0.7,1.1-0.6c0,0,0.1,0,0.1,0c0.2,0.1,0.4,0.3,0.4,0.5l0.3,0.3c0.1,0,0.1,0,0.1-0.1l0,0.2l0.1,0.1c0,0,0.1-0.1,0.1-0.1
	c0,0,0.1,0,0.2-0.2c-0.1,0.1-0.1,0.3-0.1,0.5l1.1,0.9c0.1-0.1,0.1-0.1,0.2-0.1l-0.1,0.3l0.1,0.1l0.1-0.1c0.1,0,0.1,0.1,0.1,0.2
	l3.9,3.3l0.7,0.8c0.3,0,0.6,0,0.9,0.1c0.4,0.2,0.6,0.1,0.2,0.3l-0.4,0.2h0.3c0,0.1-0.1,0.2-0.1,0.3l0.3,0.3c0.2,0,0.4-0.1,0.3,0
	s0,0.1-0.1,0.2l0,0c0.1-0.1,0.3-0.3,0.2,0c0,0-0.1,0-0.1,0.1l0,0l1.3,1.4c0.2-0.1,0.3-0.2,0.4-0.2s-0.1,0-0.2,0.1s0,0,0.1,0
	s-0.1,0.1-0.2,0.2l1.8,2c0.1-0.2,0.5-0.4,0.5-0.4c0.2-0.2,0,0.1-0.1,0.4c0,0.1,0,0.1,0,0.2l0,0l0,0c0,0.1,0,0.1,0.1,0.1
	c-0.1,0.2,0.1,0.2,0.2,0.3s0.5,0.1,0.2,0.5l0.4,0.4c0.1,0,0.2,0.1,0.2,0.2l0.3-0.1c0,0.2,0.5,0.2,0,0.5l0,0c0.1,0,2,2.3,3,3.1
	c0.1,0.2,0.2,0.4,0.3,0.6c-0.1,0.2-0.2,0.5-0.2,0.7c0,0.1,0,0.2,0,0.3l-0.3,0.3l0.1,0.3l-0.3-0.2c0,0-1.1,1.1-1,1.1
	s-0.2,0.2,0.1,0.2c-0.2,0-0.4,0.1-0.6,0.2l-3.1,3.1c0,0.1,0.1,0.2,0,0.2h-0.2l-5.6,5.5c-0.2-0.1-0.5,0-0.6,0.2c0,0,0,0.1,0,0.1
	c0,0.3-0.9,0.8-1,0.9c-1.2,1.3-3.8,4-3.8,4c-0.2-0.1-0.5-0.1-0.6,0c-0.6,0.5-1,1.1-1.6,1.6s-0.9,0.6-1.3,1c-0.7,0.7-1.4,1.5-1.9,2.4
	c0,0-1.9,1.7-2,1.8c0.1,0.1,0,0.1-0.2,0.2l-2.1,1.9c0,0,0.9,1.5,0.6,1.6s-0.8,0.6-0.8,0.6l-1.6-0.5l0,0c-0.1,0-0.1,0.1-0.2,0.2
	c0,0.1,0.2,0.2-0.1,0.4l-0.1,0.4l-0.3-0.3c0,0-8.1,7.5-8.4,7.8c0,0.1,0,0.2-0.1,0.3c-0.6,0.9-1.2,1.7-2,2.4
	c-0.8,0.7-1.8,1.1-2.6,1.8c0,0.2-0.1,0.5-0.3,0.6c-0.1,0-0.3,0.5-0.4,0.6s-0.6,0.2-0.9,0.4c-0.1,0.1-0.3,0.1-0.5,0l-0.3,0.3
	c0.1,0.2,0.7,0.1,0.3,0.4c-0.2-0.1-0.3-0.2-0.5-0.2l-0.4,0.4c0.1,0.2,0,0.4-0.1,0.6l-0.2-0.3l-1.5,1.5c-0.1,0.2,0,0.4-0.4,0.4
	l-1.7,1.9l0.3,0.1l-0.1,0.1l-0.3-0.2l-0.3,0.3c0,0.2,0,0.4-0.3,0.4c0,0,0-0.1,0-0.1l-0.2,0.2c0.3,0.5-0.9,0.4-0.3,1.1
	c-0.6,0.1-0.5,0.8-0.5,0l-0.4,0.1l-0.6,0.6c0,0.1,0,0.2,0,0.3c-0.1,0-0.1,0-0.2-0.1l-0.5,0.6c0.2,0.1,0.4,0,0.3,0.3h-0.5l-1.4,1.6
	c0.1,0.1,0.2,0.2,0.1,0.3c0,0,0,0.1-0.1,0.1l-0.2-0.3l-0.6,0.6c-0.1,0.3-0.3,0.6-0.4,0.9c0-0.1-0.2-0.1-0.4,0l-0.4,0.4v0.3
	c0-0.1-0.2-0.1-0.2-0.1l-5.7,6.4l-0.4,0.9c0,0-0.1,0.1-0.1,0.1c-0.4,0.5-0.7,1.1-0.7,1.8c0,0.1,0,0.1,0.1,0.2l-0.3,0.7
	c0.1,0.1,0.2,0.3,0.1,0.3c-0.1,0.1-0.2,0.2-0.3,0.2l-0.1,0.3c0.2,0.1,0.5,0.1,0.2,0.3c0-0.1,0-0.2-0.1-0.2c0,0-0.1,0-0.1,0.1
	l-1.5,4.2c0.1,0,0.2,0.1,0.1,0.3s0.1,0.2,0,0.2s0,0.1,0,0.2s-0.2-0.1-0.3-0.2l0,0c0.3,0.4-0.1,0.4-0.1,0.8c0-0.1-0.1-0.1-0.2-0.1
	l-1.7,4.6c0,0.2,0,0.3,0.1,0.4c-0.5,0-0.1,0.3-0.4,0.3c0,0.1,0,0.1,0,0.2c0.1,0,0.3,0.1,0.4,0.2h0.3c0.3,0.1-0.1,0.1-0.4,0.2
	c-0.1,0-0.2,0.1-0.2,0.1s-0.2,0.1-0.1,0.2c-0.2,0.1-0.3,0.2-0.4,0.3c0,0-0.5,1.5-0.5,1.5l3.8-3.9c1.2-1.1,2.4-2.2,3.6-3.3
	s2.4-2.1,3-3.4c0-0.1,0-0.1,0-0.2l0.4-0.4c0.2,0.2,0.5,0.2,0.7,0c0,0,0,0,0,0c0.6-0.6,1.2-1.3,1.8-1.9c0.3-0.3,0.6-0.8,0.9-1.1
	c0.3-0.3,0.6-0.6,0.8-0.9c0.1-0.2,0.1-0.3,0-0.5l2.7-2.9l-0.2-0.2c-0.2-0.2,0.1-0.1,0.3,0l1.7-1.9l-0.2-0.2c0.3-0.1,0.6-0.3,0.8-0.5
	c-0.2-0.2,0.4-0.2,0.4-0.4l4.2-4.6c0.2,0.1,0.5,0,0.6-0.2c0.5-0.8,1.4-1.4,1.8-2.2c0-0.1,0.3-0.5,0.3-0.5c0.1,0,0.2,0,0.3-0.1
	c1-0.6,2-1.4,2.9-2.2c0.4-0.5,0.9-1,1.2-1.6c0.1-0.1,0.4-0.5,0.4-0.6c0.3-0.3,0.7-0.5,1-0.7c0.4-0.2,0.6-0.6,0.8-0.9
	c0.6-0.4,1.2-0.8,1.8-1.3c0.9-1,1.5-2,2.3-3c0.1-0.1,0.3-0.2,0.4-0.4c0.2,0,0.3,0,0.4-0.1c0.4-0.3,0.8-0.6,1.1-1
	c0.1-0.1,0.1-0.2,0.1-0.4c1.8-1.5,3.4-3.1,4.9-5C266.8,73.2,270.5,69.7,270.6,69.6z M307.7,32.9c0,0.2,0.3,0.1,0.3,0.3
	c-0.2,0-0.4,0.1-0.5,0.3C307.5,33.3,307.6,33.1,307.7,32.9z M304.9,36.4c-0.1,0.1,0,0.1,0.1,0.2c-0.1,0-0.2,0-0.3,0.1L304.9,36.4z
	 M302.1,28.6c0.1,0.2,0.1,0.4,0,0.5c0-0.2-0.3-0.1-0.4-0.3C301.9,28.8,302.1,28.7,302.1,28.6L302.1,28.6z M299.7,30.8
	c0.2,0,0.3,0.1,0.3,0.3c0-0.1-0.1,0-0.3,0L299.7,30.8z M283.4,4.3c0.1,0.1,0.1,0.1,0,0.2c0,0,0,0,0,0l-0.1,0.1L283.4,4.3z
	 M280.3,1.7c0-0.1-0.2-0.1-0.2-0.1C280.4,1.2,280.1,1.6,280.3,1.7z M247.3,23.9l-0.1-0.2c0.1,0,0.1,0,0.1,0.1L247.3,23.9z
	 M269.8,38.4c0,0,0,0.1-0.1,0.1h-0.1L269.8,38.4z M289.5,42.4l-0.3,0.1v-0.1L289.5,42.4z M238.8,91.2c-0.4-0.3,0.1-0.1,0.3-0.4
	C239,90.9,238.9,91.1,238.8,91.2L238.8,91.2z M243.5,85.1l0.2-0.3c0.1,0.1,0.2,0.1,0.4,0.1C243.5,85,244.1,85.2,243.5,85.1
	L243.5,85.1z M244.6,84.3c0,0,0.2-0.1,0.2,0v0.1C244.8,84.4,244.6,84.4,244.6,84.3L244.6,84.3z"/>
<rect x="0" class="st1" width="996" height="159.1"/>
</svg>
